<?xml version="1.0" standalone="no"?>
<!DOCTYPE svg PUBLIC "-//W3C//DTD SVG 1.1//EN" "http://www.w3.org/Graphics/SVG/1.1/DTD/svg11.dtd" >
<svg xmlns="http://www.w3.org/2000/svg">
<metadata>Generated by IcoMoon</metadata>
<defs>
<font id="bluecollar-icons" horiz-adv-x="1024">
<font-face units-per-em="1024" ascent="960" descent="-64" />
<missing-glyph horiz-adv-x="1024" />
<glyph unicode="&#x20;" horiz-adv-x="512" d="" />
<glyph unicode="&#xe900;" glyph-name="area-circle" d="M512 277.291c-94.080 0-170.667 76.544-170.667 170.667s76.587 170.667 170.667 170.667 170.667-76.544 170.667-170.667-76.587-170.667-170.667-170.667zM512 533.291c-47.104 0-85.333-38.315-85.333-85.333 0-47.061 38.229-85.333 85.333-85.333s85.333 38.272 85.333 85.333c0 47.019-38.229 85.333-85.333 85.333zM519.040-23.296l-8.917 84.864 42.453 4.48c26.667 2.816 53.035 8.405 78.421 16.683l40.576 13.184 26.411-81.109-40.576-13.227c-31.061-10.112-63.317-16.939-95.915-20.395l-42.453-4.48zM408.064-11.861l-40.576 13.141c-31.104 10.069-61.269 23.467-89.685 39.851l-36.992 21.291 42.581 73.941 36.992-21.291c23.253-13.397 47.915-24.363 73.344-32.597l40.576-13.099-26.24-81.237zM794.539 70.741l-57.131 63.403 31.659 28.544c19.925 17.92 38.016 38.016 53.76 59.648l25.088 34.56 68.992-50.219-25.088-34.517c-19.243-26.453-41.344-50.944-65.579-72.875l-31.701-28.544zM157.909 136.917l-25.173 34.475c-19.328 26.496-35.925 55.040-49.237 84.821l-17.451 38.912 77.867 34.901 17.408-38.997c10.923-24.363 24.491-47.701 40.32-69.333l25.173-34.432-68.907-50.347zM962.389 308.693l-83.499 17.664 8.789 41.728c5.547 26.069 8.32 52.992 8.32 79.872v42.667l85.333 1.749v-43.179c0-34.048-3.413-66.816-10.155-98.731l-8.789-41.771zM42.667 404.395v42.709c0 33.28 3.328 65.749 9.899 97.365l8.789 41.771 83.499-17.451-8.661-41.771c-5.461-25.856-8.192-52.48-8.192-79.061v-42.667l-85.333-0.896zM879.829 566.613l-17.536 38.869c-10.965 24.32-24.533 47.616-40.405 69.291l-25.216 34.432 68.821 50.475 25.216-34.432c19.371-26.453 36.053-54.997 49.408-84.693l17.493-38.912-77.781-35.029zM175.659 638.293l-69.077 50.048 25.003 34.56c19.2 26.496 41.259 51.029 65.451 72.96l31.616 28.629 57.301-63.275-31.616-28.587c-19.84-17.963-37.931-38.101-53.589-59.776l-25.088-34.56zM739.84 759.979l-36.992 21.248c-23.168 13.355-47.829 24.192-73.344 32.427l-40.619 13.056 26.069 81.237 40.619-13.056c31.147-10.027 61.355-23.381 89.771-39.68l36.992-21.248-42.496-73.984zM351.701 799.616l-26.581 81.067 40.533 13.312c31.061 10.197 63.317 17.109 95.915 20.608l42.411 4.523 9.088-84.864-42.411-4.565c-26.667-2.859-53.077-8.491-78.421-16.811l-40.533-13.269z" />
<glyph unicode="&#xe901;" glyph-name="backhoe-loader" d="M853.333 317.824v130.176c0 23.595-19.115 42.667-42.667 42.667h-128v170.667c0 47.104-38.229 85.333-85.333 85.333h-128c-19.029 0-36.437-6.443-50.645-17.024l-132.523 132.523c-16.683 16.683-43.648 16.683-60.331 0-186.88-186.88-175.829-165.504-175.829-165.504-41.003-40.96-58.539-99.072-46.037-158.165 13.483-63.616 65.323-115.541 128.939-129.109 60.032-12.843 119.083 5.419 160.171 47.701 15.744 16.213 14.208 42.624-1.749 58.581l-145.664 145.664 110.336 110.336 128-128v-325.845c-82.901-11.989-144.213-91.563-124.16-181.333 15.403-68.992 81.195-115.157 151.893-115.157h413.824c70.699 0 136.533 46.165 151.936 115.157 20.053 89.771-41.259 169.344-124.16 181.333zM88.192 598.101l104.576-104.576c-63.445-16.896-121.429 41.259-104.576 104.576zM768 405.333v-85.333h-298.667v85.333h298.667zM697.643 234.667c-9.301-19.499-14.976-41.003-14.976-64 0-23.040 5.675-44.501 14.976-64h-157.952c9.301 19.499 14.976 40.96 14.976 64 0 22.997-5.675 44.501-14.976 64h157.952zM597.333 661.333v-170.667h-128v170.667h128zM341.333 170.667c0 35.285 28.715 64 64 64s64-28.715 64-64-28.715-64-64-64-64 28.715-64 64zM832 106.667c-35.285 0-64 28.715-64 64s28.715 64 64 64 64-28.715 64-64-28.715-64-64-64z" />
<glyph unicode="&#xe902;" glyph-name="bench" d="M1022.763 287.659l-42.667 170.667c-4.779 18.987-21.845 32.341-41.429 32.341h-128v85.333h128v85.333h-128v42.667h128v85.333h-128v42.667h-85.333v-42.667h-426.667v42.667h-85.333v-42.667h-128v-85.333h128v-42.667h-128v-85.333h128v-85.333h-128c-19.584 0-36.651-13.355-41.429-32.341l-42.667-170.667c-3.157-12.715-0.299-26.24 7.808-36.565 8.064-10.368 20.437-16.427 33.621-16.427h85.333v-170.667h85.333v170.667h597.333v-170.667h85.333v170.667h85.333c13.184 0 25.557 6.059 33.621 16.427 8.107 10.325 10.965 23.851 7.808 36.565zM298.667 704h426.667v-42.667h-426.667v42.667zM298.667 576h426.667v-85.333h-426.667v85.333zM97.323 320l21.333 85.333h786.688l21.333-85.333h-829.355z" />
<glyph unicode="&#xe903;" glyph-name="book-shelf" d="M853.333 874.667h-682.667c-47.061 0-85.333-38.315-85.333-85.333v-810.667h85.333v85.333h682.667v-85.333h85.333v810.667c0 47.019-38.272 85.333-85.333 85.333zM853.333 789.333v-298.667h-341.333v213.333h-128v-213.333h-42.667v213.333h-128v-213.333h-42.667v298.667h682.667zM640 362.667v-213.333h-42.667v213.333h-128v-213.333h-42.667v213.333h-128v-213.333h-128v256h682.667v-256h-85.333v213.333h-128zM674.089 746.647l76.742-199-119.464-46.070-76.742 199 119.464 46.070z" />
<glyph unicode="&#xe904;" glyph-name="box" d="M913.323 700.288l-384 170.667c-11.051 4.907-23.637 4.907-34.688 0l-384-170.667c-15.403-6.869-25.301-22.144-25.301-38.955v-426.667c0-16.853 9.899-32.128 25.344-38.997l384-170.667c5.504-2.475 11.392-3.669 17.323-3.669s11.819 1.237 17.323 3.669l384 170.667c15.445 6.827 25.344 22.101 25.344 38.997v426.667c0 16.811-9.899 32.085-25.344 38.955zM512 785.28l278.955-123.947-76.288-33.92-278.955 123.947 76.288 33.92zM512 537.301l-278.955 124.032 97.621 43.392 278.955-123.989-97.621-43.435zM170.667 595.627l298.667-132.736v-333.312l-298.667 132.736v333.312zM554.667 129.621v333.312l298.667 132.736v-333.269l-298.667-132.779z" />
<glyph unicode="&#xe905;" glyph-name="brick-wall2" d="M896 405.333h-170.667v128c0 23.595-19.115 42.667-42.667 42.667h-42.667v128c0 23.595-19.115 42.667-42.667 42.667h-469.333c-23.552 0-42.667-19.072-42.667-42.667v-682.667c0-23.595 19.115-42.667 42.667-42.667h768c23.552 0 42.667 19.072 42.667 42.667v341.333c0 23.595-19.115 42.667-42.667 42.667zM853.333 234.667h-213.333v85.333h213.333v-85.333zM384 234.667v85.333h170.667v-85.333h-170.667zM170.667 234.667v85.333h128v-85.333h-128zM384 490.667v-85.333h-213.333v85.333h213.333zM469.333 405.333v85.333h170.667v-85.333h-170.667zM554.667 576h-170.667v85.333h170.667v-85.333zM170.667 661.333h128v-85.333h-128v85.333zM170.667 149.333h213.333v-85.333h-213.333v85.333zM469.333 149.333h170.667v-85.333h-170.667v85.333zM853.333 64h-128v85.333h128v-85.333z" />
<glyph unicode="&#xe906;" glyph-name="brick-wall" d="M896 405.333h-85.333v128c0 23.552-19.072 42.667-42.667 42.667h-85.333v128c0 23.552-19.072 42.667-42.667 42.667h-256c-23.595 0-42.667-19.115-42.667-42.667v-128h-85.333c-23.595 0-42.667-19.115-42.667-42.667v-128h-85.333c-23.595 0-42.667-19.115-42.667-42.667v-170.667c0-23.552 19.072-42.667 42.667-42.667h768c23.595 0 42.667 19.115 42.667 42.667v170.667c0 23.552-19.072 42.667-42.667 42.667zM725.333 405.333h-170.667v85.333h170.667v-85.333zM426.667 661.333h170.667v-85.333h-170.667v85.333zM298.667 490.667h170.667v-85.333h-170.667v85.333zM170.667 320h170.667v-85.333h-170.667v85.333zM426.667 320h170.667v-85.333h-170.667v85.333zM853.333 234.667h-170.667v85.333h170.667v-85.333z" />
<glyph unicode="&#xe907;" glyph-name="bus" d="M938.667 704h-853.333c-47.061 0-85.333-38.229-85.333-85.333v-469.333c0-23.595 19.115-42.667 42.667-42.667h93.227c17.664-49.579 64.555-85.333 120.107-85.333s102.443 35.755 120.149 85.333h271.744c17.664-49.579 64.597-85.333 120.107-85.333s102.443 35.755 120.149 85.333h93.184c23.552 0 42.667 19.072 42.667 42.667v469.333c0 47.104-38.272 85.333-85.333 85.333zM938.667 490.667h-128v128h128v-128zM384 618.667h128v-128h-128v128zM597.333 618.667h128v-128h-128v128zM298.667 618.667v-142.549l-213.333-91.435v233.984h213.333zM256 106.667c-23.509 0-42.667 19.157-42.667 42.667s19.157 42.667 42.667 42.667 42.667-19.157 42.667-42.667-19.157-42.667-42.667-42.667zM768 106.667c-23.509 0-42.667 19.157-42.667 42.667s19.157 42.667 42.667 42.667 42.667-19.157 42.667-42.667-19.157-42.667-42.667-42.667zM888.149 192c-17.707 49.579-64.597 85.333-120.149 85.333s-102.443-35.755-120.107-85.333h-271.744c-17.707 49.579-64.597 85.333-120.149 85.333s-102.443-35.755-120.107-85.333h-50.56v99.883l264.747 113.451h588.587v-213.333h-50.517z" />
<glyph unicode="&#xe908;" glyph-name="cabinet" d="M938.667 789.333h-853.333v-85.333h42.667v-640c0-23.552 19.072-42.667 42.667-42.667h42.667v-42.667h85.333v42.667h426.667v-42.667h85.333v42.667h42.667c23.595 0 42.667 19.115 42.667 42.667v640h42.667v85.333zM213.333 277.333h256v-170.667h-256v170.667zM213.333 362.667v128h597.333v-128h-597.333zM554.667 106.667v170.667h256v-170.667h-256zM810.667 576h-597.333v128h597.333v-128zM725.333 192c0-23.564-19.103-42.667-42.667-42.667s-42.667 19.103-42.667 42.667c0 23.564 19.103 42.667 42.667 42.667s42.667-19.103 42.667-42.667zM384 192c0-23.564-19.103-42.667-42.667-42.667s-42.667 19.103-42.667 42.667c0 23.564 19.103 42.667 42.667 42.667s42.667-19.103 42.667-42.667zM554.667 426.667c0-23.564-19.103-42.667-42.667-42.667s-42.667 19.103-42.667 42.667c0 23.564 19.103 42.667 42.667 42.667s42.667-19.103 42.667-42.667zM554.667 640c0-23.564-19.103-42.667-42.667-42.667s-42.667 19.103-42.667 42.667c0 23.564 19.103 42.667 42.667 42.667s42.667-19.103 42.667-42.667z" />
<glyph unicode="&#xe909;" glyph-name="calendar" d="M896 832h-128v85.333h-85.333v-256h85.333v85.333h128v-640h-768v640h85.333v85.333h-85.333c-47.104 0-85.333-38.187-85.333-85.333v-640c0-47.104 38.229-85.333 85.333-85.333h768c47.104 0 85.333 38.229 85.333 85.333v640c0 47.147-38.229 85.333-85.333 85.333zM341.333 746.667h298.667v85.333h-298.667v85.333h-85.333v-256h85.333zM213.333 576h170.667v-170.667h-170.667v170.667zM426.667 576h170.667v-170.667h-170.667v170.667zM640 576h170.667v-170.667h-170.667v170.667zM213.333 362.667h170.667v-170.667h-170.667v170.667zM426.667 362.667h170.667v-170.667h-170.667v170.667z" />
<glyph unicode="&#xe90a;" glyph-name="camera" d="M512 618.709c-117.632 0-213.333-95.701-213.333-213.333 0-117.675 95.701-213.333 213.333-213.333s213.333 95.659 213.333 213.333c0 117.675-95.701 213.333-213.333 213.333zM512 277.376c-70.571 0-128 57.429-128 128s57.429 128 128 128 128-57.429 128-128c0-70.571-57.429-128-128-128zM853.333 704.043h-147.84l-59.989 89.984c-15.872 23.808-42.411 38.016-70.997 38.016h-125.013c-28.587 0-55.125-14.208-70.997-38.016l-59.989-89.984h-147.84c-47.061 0-85.333-38.272-85.333-85.333v-469.333c0-47.061 38.272-85.333 85.333-85.333h682.667c47.061 0 85.333 38.272 85.333 85.333v469.333c0 47.061-38.272 85.333-85.333 85.333zM170.667 149.376v469.333h193.493l85.333 128h125.013l85.333-128h193.493l0.043-469.333h-682.709z" />
<glyph unicode="&#xe90b;" glyph-name="car" d="M938.667 448h-21.333l-115.2 153.6c-8.064 10.752-20.693 17.067-34.133 17.067h-426.667c-16.171 0-30.933-9.131-38.187-23.595l-73.515-147.072h-58.965c-94.123 0-170.667-76.587-170.667-170.667v-85.333c0-23.595 19.115-42.667 42.667-42.667h93.227c17.664-49.579 64.555-85.333 120.107-85.333s102.443 35.755 120.149 85.333h314.411c17.664-49.579 64.597-85.333 120.107-85.333s102.443 35.755 120.149 85.333h50.517c23.552 0 42.667 19.072 42.667 42.667v170.667c0 47.104-38.272 85.333-85.333 85.333zM810.667 448h-170.667v85.333h106.667l64-85.333zM367.701 533.333h186.965v-85.333h-229.632l42.667 85.333zM256 149.333c-23.509 0-42.667 19.157-42.667 42.667s19.157 42.667 42.667 42.667 42.667-19.157 42.667-42.667-19.157-42.667-42.667-42.667zM810.667 149.333c-23.509 0-42.667 19.157-42.667 42.667s19.157 42.667 42.667 42.667 42.667-19.157 42.667-42.667-19.157-42.667-42.667-42.667zM938.667 234.667h-7.851c-17.707 49.579-64.597 85.333-120.149 85.333s-102.443-35.755-120.107-85.333h-314.411c-17.707 49.579-64.597 85.333-120.149 85.333s-102.443-35.755-120.107-85.333h-50.56v42.667c0 47.104 38.272 85.333 85.333 85.333h768v-128z" />
<glyph unicode="&#xe90c;" glyph-name="certificate" d="M426.667 277.291h-341.333c-47.104 0-85.333 38.272-85.333 85.333v512c0 47.061 38.229 85.333 85.333 85.333h682.667c47.104 0 85.333-38.272 85.333-85.333v-128h-85.333v128h-682.667v-512h341.333v-85.333zM426.667 405.291h-256c-23.595 0-42.667 19.115-42.667 42.667v341.333c0 23.595 19.072 42.667 42.667 42.667h512c23.595 0 42.667-19.072 42.667-42.667v-42.667h-512v-256h213.333v-85.333zM853.333 405.291c0-47.128-38.205-85.333-85.333-85.333s-85.333 38.205-85.333 85.333c0 47.128 38.205 85.333 85.333 85.333s85.333-38.205 85.333-85.333zM1024 405.291c0 141.184-114.816 256-256 256s-256-114.816-256-256c0-89.259 45.909-167.851 115.328-213.675l-29.568-206.976c-2.389-16.683 5.248-33.152 19.499-42.155 14.251-8.96 32.427-8.704 46.421 0.64l104.32 69.547 104.32-69.547c7.168-4.779 15.403-7.168 23.68-7.168 7.936 0 15.787 2.176 22.741 6.528 14.251 9.003 21.888 25.515 19.499 42.155l-29.568 206.976c69.419 45.824 115.328 124.416 115.328 213.675zM768 234.624c-94.251 0-170.667 76.416-170.667 170.667s76.416 170.667 170.667 170.667 170.667-76.416 170.667-170.667-76.416-170.667-170.667-170.667z" />
<glyph unicode="&#xe90d;" glyph-name="chat-bubble-circle" d="M511.915 64h-426.667c-16.981 0-32.341 10.069-39.083 25.6-6.784 15.573-3.712 33.664 7.851 46.080l98.389 105.984c-44.075 61.611-67.157 132.309-67.157 206.336 0 211.755 191.403 384 426.667 384s426.667-172.245 426.667-384-191.403-384-426.667-384zM183.083 149.333h328.832c188.203 0 341.333 133.973 341.333 298.667 0 164.651-153.131 298.667-341.333 298.667s-341.333-134.016-341.333-298.667c0-65.579 24.235-128 70.059-180.565 14.336-16.469 13.952-41.088-0.896-57.088l-56.661-61.013z" />
<glyph unicode="&#xe90e;" glyph-name="check-list" d="M940.459 21.333h-853.333c-47.061 0-85.333 38.272-85.333 85.333v682.667c0 47.019 38.272 85.333 85.333 85.333h853.333c47.061 0 85.333-38.315 85.333-85.333v-682.667c0-47.061-38.272-85.333-85.333-85.333zM87.125 789.333v-682.667h853.376l-0.043 682.667h-853.333zM318.379 243.883l-175.531 117.035 59.179 88.789 80.469-53.632 142.293 249.045 92.629-52.949zM599.125 576h256v-85.333h-256v85.333zM599.125 405.333h256v-85.333h-256v85.333z" />
<glyph unicode="&#xe90f;" glyph-name="chevron-left2" d="M651.837 123.802l-344.637 344.678 344.637 344.637 57.917-57.917-286.72-286.72 286.72-286.72z" />
<glyph unicode="&#xe910;" glyph-name="chevron-right2" d="M365.117 123.802l344.637 344.678-344.637 344.637-57.917-57.917 286.72-286.72-286.72-286.72z" />
<glyph unicode="&#xe911;" glyph-name="clock" d="M512 21.333c-211.712 0-384 172.245-384 384s172.288 384 384 384 384-172.245 384-384-172.288-384-384-384zM512 704c-164.693 0-298.667-133.973-298.667-298.667s133.973-298.667 298.667-298.667 298.667 133.973 298.667 298.667c0 164.693-133.973 298.667-298.667 298.667zM609.835 247.168l-128 128c-8.021 8.021-12.501 18.859-12.501 30.165v213.333h85.333v-195.669l115.499-115.499-60.331-60.331z" />
<glyph unicode="&#xe912;" glyph-name="close2" d="M885.291 759.168l-60.373 60.331-311.125-311.168-311.168 311.168-60.373-60.331 311.168-311.168-311.168-311.168 60.373-60.331 311.168 311.168 311.125-311.168 60.373 60.331-311.168 311.168z" />
<glyph unicode="&#xe913;" glyph-name="coffee-cup" d="M725.333 704v42.667c0 23.552-19.072 42.667-42.667 42.667h-512c-23.595 0-42.667-19.115-42.667-42.667v-426.667c0-117.632 95.701-213.333 213.333-213.333h170.667c117.632 0 213.333 95.701 213.333 213.333v42.667c94.080 0 170.667 76.544 170.667 170.667s-76.587 170.667-170.667 170.667zM512 192h-170.667c-70.571 0-128 57.429-128 128v384h426.667v-384c0-70.571-57.429-128-128-128zM725.333 448v170.667c47.104 0 85.333-38.229 85.333-85.333 0-47.061-38.229-85.333-85.333-85.333zM256 576h85.333v-256h-85.333v256z" />
<glyph unicode="&#xe914;" glyph-name="cog-double" d="M841.643 362.667h-88.576c-35.243-99.328-129.877-170.667-241.067-170.667-141.184 0-256 114.773-256 256 0 111.189 71.424 205.781 170.667 241.067v88.576c-38.357-9.984-74.453-25.643-106.368-47.403l-64.768 64.725-90.496-90.496 64.768-64.768c-21.803-31.957-37.973-67.883-47.872-106.368h-96.597v-170.667h96.597c9.899-38.528 26.069-74.411 47.872-106.368l-64.768-64.768 90.496-90.539 64.768 64.768c31.957-21.76 67.925-37.888 106.368-47.872v-96.555h170.667v96.555c38.443 9.941 74.411 26.112 106.368 47.872l64.768-64.768 90.496 90.539-64.768 64.768c21.76 31.915 37.461 68.011 47.445 106.368zM938.667 622.549v77.611h-63.659c-3.456 13.312-8.661 25.771-15.275 37.376l40.149 40.192-58.155 58.155-40.235-40.149c-11.605 6.656-24.064 11.819-37.419 15.275v63.659h-77.525v-63.659c-13.312-3.456-25.771-8.619-37.376-15.275l-40.192 40.149-58.197-58.155 40.192-40.192c-6.613-11.605-11.819-24.064-15.317-37.376h-63.659v-77.568h63.616c3.499-13.312 8.704-25.771 15.317-37.419l-40.192-40.192 58.197-58.155 40.192 40.107c11.605-6.613 24.064-11.819 37.376-15.275v-63.659h77.525v63.616c13.355 3.499 25.771 8.661 37.419 15.275l40.192-40.107 58.155 58.155-40.149 40.192c6.613 11.648 11.819 24.107 15.275 37.419h63.744zM725.333 576c-47.147 0-85.333 38.229-85.333 85.333s38.187 85.333 85.333 85.333 85.333-38.229 85.333-85.333-38.187-85.333-85.333-85.333z" />
<glyph unicode="&#xe915;" glyph-name="cog" d="M896 384v128h-137.152c-6.016 23.232-15.232 45.056-27.136 65.216l97.024 97.024-90.496 90.56-96.96-97.024c-20.288 11.904-42.048 21.12-65.28 27.136v137.088h-128v-137.088c-23.232-6.080-44.992-15.232-65.28-27.2l-96.96 97.088-90.496-90.496 96.96-97.024c-11.84-20.224-21.12-41.984-27.072-65.28h-137.152v-128h137.152c6.016-23.232 15.232-45.056 27.136-65.216l-97.024-97.088 90.496-90.496 97.024 97.024c20.224-11.904 41.984-21.12 65.28-27.2v-137.024h128v137.088c23.232 6.080 44.992 15.296 65.28 27.2l97.024-97.024 90.496 90.496-97.024 97.088c11.904 20.16 21.12 41.92 27.136 65.216l137.024-0.064zM512 320c-70.656 0-128 57.408-128 128 0 70.528 57.344 128 128 128s128-57.472 128-128c0-70.528-57.344-128-128-128v0z" />
<glyph unicode="&#xe916;" glyph-name="droplet" d="M512 21.333c-164.693 0-298.667 133.973-298.667 298.667 0 147.029 217.344 469.333 298.667 587.093 81.749-118.357 298.667-440.192 298.667-587.093 0-164.693-133.973-298.667-298.667-298.667zM512 755.499c-94.037-143.531-213.333-352.981-213.333-435.499 0-117.632 95.701-213.333 213.333-213.333s213.333 95.701 213.333 213.333c0 82.517-119.296 292.011-213.333 435.499z" />
<glyph unicode="&#xe917;" glyph-name="compass" d="M512 874.667c-235.733 0-426.709-190.848-426.667-426.667 0-235.776 190.805-426.667 426.667-426.667 235.733 0 426.667 190.805 426.667 426.667 0.043 235.733-190.805 426.667-426.667 426.667zM170.667 448c0 91.179 35.499 176.896 99.968 241.365s150.187 99.968 241.365 99.968c89.472 0 173.525-34.347 237.525-96.512l-361.771-120.576-120.576-361.813c-62.165 64.043-96.512 148.139-96.512 237.568zM455.211 504.789l113.536-113.621-170.325-56.789 56.789 170.411zM512 106.667c-89.429 0-173.483 34.347-237.483 96.469l361.728 120.619 120.576 361.813c62.165-64.043 96.512-148.139 96.512-237.568 0-188.672-152.661-341.333-341.333-341.333z" />
<glyph unicode="&#xe918;" glyph-name="compasses" d="M512.043 576c70.699 0 128 57.301 128 128 0 70.656-57.301 128-128 128s-128-57.344-128-128c0-70.699 57.344-128 128-128zM512.043 746.667c23.552 0 42.667-19.115 42.667-42.667 0-23.595-19.115-42.667-42.667-42.667s-42.667 19.072-42.667 42.667c0 23.552 19.115 42.667 42.667 42.667zM469.333 960h85.333v-85.333h-85.333v85.333zM810.667 490.667h-85.333c0-41.899-20.523-78.848-51.712-102.229l-50.475 134.187c-24.448-15.019-52.053-24.875-81.749-29.056l46.805-130.901h-152.363l46.763 130.901c-29.653 4.181-57.259 14.080-81.707 29.141l-166.187-441.728 63.957-102.315 106.667 298.667h192c7.040 0 13.696 1.408 20.565 2.091l107.435-300.757 63.957 102.315-85.077 226.133c63.317 37.035 106.453 105.003 106.453 183.552z" />
<glyph unicode="&#xe919;" glyph-name="construction-lift" d="M320.256 490.667l191.744 246.528 191.787-246.528h81.067l-240.853 309.632v159.701h-64v-159.701l-240.853-309.632zM938.667 362.667v85.333h-853.333v-85.333h42.667v-213.333h-42.667v-85.333h853.333v85.333h-42.667v213.333h42.667zM554.667 362.667h85.333v-213.333h-85.333v213.333zM469.333 149.333h-85.333v213.333h85.333v-213.333zM213.333 362.667h85.333v-213.333h-85.333v213.333zM810.667 149.333h-85.333v213.333h85.333v-213.333z" />
<glyph unicode="&#xe91a;" glyph-name="shovel2" d="M921.003 615.637l60.331 60.331-241.365 241.365-60.331-60.288 90.539-90.539-301.696-301.696-120.747 120.661c-16.64 16.683-43.648 16.683-60.331 0l-180.992-180.992c-7.68-7.68-12.117-17.963-12.459-28.8-0.171-5.077-7.893-234.965-7.296-239.957 6.656-59.904 53.163-106.368 113.024-113.024 5.12-0.64 234.752 7.125 239.957 7.253 10.837 0.341 21.12 4.821 28.8 12.459l180.992 181.077c16.683 16.683 16.683 43.605 0 60.288l-120.661 120.704 301.696 301.696 90.539-90.539zM420.096 114.688l-213.461-6.912c-17.92 3.029-31.744 16.896-34.816 34.816l6.912 213.461 138.88 138.88 241.365-241.408-138.88-138.837z" />
<glyph unicode="&#xe91b;" glyph-name="content-box" d="M512 293.248l-85.333-36.565v269.44l213.333 108.331v-101.12h85.333v170.667c0 17.067-10.155 32.512-25.813 39.168l-298.667 128c-10.752 4.608-22.912 4.608-33.664 0l-298.667-128c-15.701-6.699-25.856-22.144-25.856-39.211v-384c0-17.067 10.155-32.512 25.813-39.211l298.667-128c5.419-2.304 11.093-3.456 16.853-3.456s11.435 1.152 16.853 3.456l111.147 47.616v92.885zM341.333 256.683l-213.333 91.435v286.293l213.333-108.331v-269.397zM384 600.149l-198.016 100.523 198.016 84.864 198.016-84.864-198.016-100.523zM957.739 400.811l-170.667 85.333c-11.989 6.016-26.155 6.016-38.187 0l-170.667-85.333c-14.421-7.253-23.552-22.016-23.552-38.187v-213.333c0-16.171 9.131-30.933 23.595-38.187l170.667-85.333c6.016-2.987 12.544-4.48 19.072-4.48s13.099 1.493 19.072 4.48l170.667 85.333c14.464 7.253 23.595 22.016 23.595 38.187v213.333c0 16.171-9.131 30.933-23.595 38.187zM768 400.213l75.264-37.589-75.264-37.632-75.264 37.632 75.264 37.589zM640 293.547l85.333-42.667v-117.888l-85.333 42.667v117.888zM810.667 132.992v117.888l85.333 42.667v-117.888l-85.333-42.667z" />
<glyph unicode="&#xe91c;" glyph-name="content-drawer" d="M938.667 831.957h-853.333v-85.333h42.667v-554.667c0-47.061 38.229-85.333 85.333-85.333v-42.667h85.333v42.667h426.667v-42.667h85.333v42.667c47.104 0 85.333 38.272 85.333 85.333v554.667h42.667v85.333zM810.667 191.957h-597.333v554.667h597.333v-554.667zM768 277.291v426.667h-512v-426.667h512zM341.333 362.624v85.333h128v-42.667h85.333v42.667h128v-85.333h-341.333zM469.333 618.624v-42.667h85.333v42.667h128v-85.333h-341.333v85.333h128z" />
<glyph unicode="&#xe91d;" glyph-name="content-layers-show" d="M512 425.259c-5.931 0-11.819 1.237-17.323 3.669l-384 170.667c-15.445 6.827-25.344 22.101-25.344 38.997s9.899 32.128 25.344 38.955l384 170.667c11.051 4.907 23.637 4.907 34.688 0l384-170.667c15.403-6.827 25.301-22.101 25.301-38.955s-9.899-32.128-25.344-38.997l-384-170.667c-5.504-2.432-11.392-3.669-17.323-3.669zM233.088 638.592l278.912-123.989 278.912 123.989-278.912 123.989-278.912-123.989zM938.667 537.941l-427.435-194.219-425.899 177.493v-92.416l410.24-171.008c5.248-2.261 10.837-3.2 16.427-3.2 6.016 0 12.032 1.237 17.621 3.712l409.045 185.899v93.739zM938.667 367.275l-427.435-194.219-425.899 177.493v-92.416l410.24-171.008c5.248-2.261 10.837-3.2 16.427-3.2 6.016 0 12.032 1.237 17.621 3.712l409.045 185.899v93.739z" />
<glyph unicode="&#xe91e;" glyph-name="diamond" d="M933.035 554.496l-170.667 298.667c-7.595 13.312-21.717 21.504-37.035 21.504h-426.667c-15.317 0-29.44-8.192-37.035-21.504l-170.667-298.667c-8.789-15.317-7.168-34.517 4.053-48.171l384-469.376c8.064-9.899 20.224-15.659 32.981-15.659s24.917 5.717 32.981 15.659l384 469.376c11.221 13.653 12.843 32.853 4.053 48.171zM448.725 576l63.275 147.669 63.275-147.669h-126.549zM584.149 490.667l-72.149-264.533-72.107 264.533h144.256zM576.725 789.333h92.032l-36.821-128.896-55.211 128.896zM392.064 660.437l-36.821 128.896h92.032l-55.211-128.896zM327.424 576h-125.909l83.925 146.901 41.984-146.901zM351.403 490.667l66.688-244.523-200.064 244.523h133.376zM672.597 490.667h133.376l-200.021-244.523 66.645 244.523zM696.576 576l41.941 146.901 83.968-146.901h-125.909z" />
<glyph unicode="&#xe91f;" glyph-name="direction-sign" d="M725.333 533.376c11.307 0 22.187 4.48 30.165 12.459l85.333 85.333c16.683 16.683 16.683 43.648 0 60.331l-85.333 85.333c-8.021 8.064-18.859 12.544-30.165 12.544h-213.333v85.333h-85.333v-85.333h-256c-23.552 0-42.667-19.157-42.667-42.667v-170.667c0-23.595 19.115-42.667 42.667-42.667h256v-85.333h-213.333c-11.307 0-22.187-4.523-30.165-12.501l-85.333-85.333c-16.683-16.683-16.683-43.648 0-60.331l85.333-85.333c7.979-8.021 18.816-12.501 30.165-12.501h213.333v-170.667h85.333v170.667h256c23.552 0 42.667 19.072 42.667 42.667v170.667c0 23.509-19.115 42.667-42.667 42.667h-256v85.333h213.333zM725.333 362.709v-85.333h-494.336l-42.667 42.667 42.667 42.667h494.336zM213.333 704.043h494.336l42.667-42.667-42.667-42.667h-494.336v85.333z" />
<glyph unicode="&#xe920;" glyph-name="double-ratchet" d="M298.667 320.085c-47.104 0-85.333-38.315-85.333-85.333 0-47.189 38.229-85.333 85.333-85.333s85.333 38.144 85.333 85.333c0 47.019-38.229 85.333-85.333 85.333zM640 746.752c-94.080 0-170.667-76.544-170.667-170.667 0-94.080 76.587-170.667 170.667-170.667s170.667 76.587 170.667 170.667c0 94.123-76.587 170.667-170.667 170.667zM640 490.752c-47.104 0-85.333 38.229-85.333 85.333s38.229 85.333 85.333 85.333 85.333-38.229 85.333-85.333-38.229-85.333-85.333-85.333zM851.157 787.243c-56.363 56.363-131.371 87.509-211.157 87.509-79.744 0-154.752-31.147-211.157-87.552-42.709-42.24-343.467-466.901-343.509-552.448 0-57.045 22.187-110.592 62.464-150.869 40.277-40.32 93.867-62.549 150.869-62.549 85.845 0 509.739 301.227 552.491 343.552 56.405 56.363 87.509 131.328 87.509 211.115s-31.104 154.837-87.509 211.243zM793.387 427.776l-398.464-278.827c-81.152-56.277-141.269-50.304-186.752-4.736-24.149 24.192-37.504 56.32-37.504 90.539 0 51.371 17.749 60.8 42.283 96.171l278.784 398.464c39.979 38.699 92.501 60.032 148.267 60.032 57.003 0 110.592-22.229 150.827-62.592 40.32-40.235 62.507-93.824 62.507-150.827 0-55.765-21.248-108.288-59.947-148.224z" />
<glyph unicode="&#xe921;" glyph-name="drum" d="M1009.685 842.763l-384.008-341.363-56.695 63.778 384.008 341.363 56.695-63.778zM512 649.173c29.611 0 57.301-1.323 83.243-3.541l84.053 74.752c-53.163 9.259-110.251 14.123-167.296 14.123s-114.133-4.864-167.296-14.123l84.053-74.752c25.941 2.219 53.632 3.541 83.243 3.541zM864.384 656.555l-67.2-59.691c36.821-18.176 56.149-37.376 56.149-51.371 0-36.523-129.579-103.595-341.333-103.595s-341.333 67.029-341.333 103.595c0 13.995 19.328 33.195 56.149 51.328l-67.2 59.733c-45.909-29.141-74.283-66.176-74.283-111.061v-377.856c0-124.075 214.656-188.971 426.667-188.971s426.667 64.896 426.667 188.971v377.856c0 44.885-28.373 81.92-74.283 111.061zM784 397.056l-106.112-238.763-114.091 199.723c79.488 3.968 156.629 17.109 220.203 39.040zM460.203 358.059l-114.091-199.765-106.112 238.763c63.573-21.931 140.715-35.072 220.203-38.997zM170.667 167.637v175.317l109.781-247.040c-70.443 22.357-109.781 51.627-109.781 71.723zM394.709 71.467l117.291 205.184 117.291-205.227c-35.584-4.651-74.667-7.424-117.291-7.424s-81.707 2.773-117.291 7.467zM743.552 95.915l109.781 247.040v-175.317c0-20.096-39.339-49.365-109.781-71.723zM70.998 906.567l384.008-341.363-56.695-63.778-384.008 341.363 56.695 63.778z" />
<glyph unicode="&#xe922;" glyph-name="eco-reuse" d="M392.363 172.373l43.52 76.672c20.309-7.424 41.728-11.605 63.36-11.605 66.005 0 127.445 35.541 160.384 92.672 52.864 91.819 27.136 318.379 24.021 343.936l-7.168 58.795-53.504-25.429c-39.723-18.987-240.171-117.077-283.776-192.853-45.269-78.635-25.728-176.811 41.387-233.344l-43.861-77.269 55.637-31.573zM413.141 472.021c18.091 31.445 109.952 87.893 191.445 130.645 5.589-84.523 4.267-189.781-18.901-230.016-21.035-36.48-65.664-54.571-106.325-47.019l60.459 106.539-55.68 31.573-60.075-105.856c-26.581 31.147-32.469 76.715-10.923 114.133zM512 64c-175.488 0-323.541 118.485-369.195 279.595l98.347 104.405h-241.152v-256l76.715 81.408c69.419-172.501 238.208-294.741 435.285-294.741 229.632 0 420.907 165.888 461.184 384h-87.040c-38.997-170.752-191.787-298.667-374.144-298.667zM949.035 617.856c-68.267 174.976-238.208 299.477-437.035 299.477-229.632 0-420.907-165.888-461.184-384h87.040c38.997 170.752 191.787 298.667 374.144 298.667 174.976 0 322.688-117.803 368.811-278.144l-112.811-105.856h256v240.256l-74.965-70.4z" />
<glyph unicode="&#xe923;" glyph-name="fence-caution" d="M896 661.333h-85.333v7.893c49.579 17.621 85.333 64.597 85.333 120.107 0 70.571-57.429 128-128 128s-128-57.429-128-128c0-55.552 35.755-102.528 85.333-120.107v-7.893h-426.667v7.893c49.579 17.621 85.333 64.597 85.333 120.107 0 70.571-57.429 128-128 128s-128-57.387-128-128c0-55.552 35.755-102.528 85.333-120.107v-7.893h-85.333c-23.595 0-42.667-19.115-42.667-42.667v-256c0-23.595 19.072-42.667 42.667-42.667h42.667v-298.667h85.333v298.667h512v-298.667h85.333v298.667h42.667c23.595 0 42.667 19.072 42.667 42.667v256c0 23.552-19.072 42.667-42.667 42.667zM657.664 576h135.339l-170.667-170.667h-135.339l170.667 170.667zM366.336 405.333h-135.339l170.667 170.667h135.339l-170.667-170.667zM768 832c23.509 0 42.667-19.157 42.667-42.667 0-23.595-19.157-42.667-42.667-42.667s-42.667 19.072-42.667 42.667c0 23.552 19.157 42.667 42.667 42.667zM256 832c23.509 0 42.667-19.157 42.667-42.667 0-23.595-19.157-42.667-42.667-42.667s-42.667 19.115-42.667 42.667c0 23.552 19.157 42.667 42.667 42.667zM281.003 576l-110.336-110.336v110.336h110.336zM742.997 405.333l110.336 110.336v-110.336h-110.336z" />
<glyph unicode="&#xe924;" glyph-name="fire" d="M512 17.916c169.421 0 307.2 137.779 307.2 307.2 0 114.586-99.635 267.366-111.002 284.416-8.499 12.749-22.323 20.992-37.53 22.528-15.36 1.485-30.413-3.942-41.267-14.746l-66.202-66.202v234.803c0 20.685-12.493 39.373-31.59 47.309-19.2 7.936-41.216 3.584-55.808-11.11-11.11-11.059-271.002-273.562-271.002-496.998 0-169.421 137.779-307.2 307.2-307.2v0zM460.8 649.417v-221.901c0-20.685 12.493-39.373 31.59-47.309 19.098-7.885 41.114-3.533 55.808 11.162l107.213 107.162c28.672-52.378 61.389-124.058 61.389-173.414 0-112.947-91.904-204.8-204.8-204.8s-204.8 91.853-204.8 204.8c0 102.4 80.896 231.322 153.6 324.301v0z" />
<glyph unicode="&#xe925;" glyph-name="flash" d="M469.333 21.333c-4.736 0-9.515 0.768-14.123 2.432-17.109 6.016-28.544 22.144-28.544 40.235v298.667h-213.333c-16.384 0-31.36 9.429-38.443 24.192s-5.12 32.256 5.163 45.141l341.333 426.667c11.307 14.123 30.336 19.584 47.445 13.568 17.067-5.973 28.501-22.101 28.501-40.235v-298.667h213.333c16.384 0 31.36-9.429 38.443-24.192s5.12-32.299-5.163-45.141l-341.333-426.667c-8.235-10.283-20.565-16-33.28-16zM302.123 448h167.211c23.552 0 42.667-19.115 42.667-42.667v-219.733l209.877 262.4h-167.211c-23.552 0-42.667 19.115-42.667 42.667v219.733l-209.877-262.4z" />
<glyph unicode="&#xe926;" glyph-name="flashlight" d="M981.333 746.667c-4.437 0-258.005-36.437-262.4-37.035-44.245-6.315-78.933-46.251-78.933-90.965h-554.667c-47.104 0-85.333-38.315-85.333-85.333v-170.667c0-47.061 38.229-85.333 85.333-85.333h554.667c0-44.715 34.688-84.651 78.891-90.965 4.395-0.597 258.005-37.035 262.443-37.035 23.595 0 42.667 19.115 42.667 42.667v512c0 23.552-19.072 42.667-42.667 42.667zM85.333 533.333h85.333v-170.667h-85.333v170.667zM256 362.667v170.667h384v-170.667h-384zM725.333 277.333v341.333c0 9.344 204.032 34.731 213.333 36.139v-413.611c-9.344 1.323-213.333 26.752-213.333 36.139z" />
<glyph unicode="&#xe927;" glyph-name="forklift" d="M1011.499 307.456l-72.832 72.875v238.336c0 94.123-76.587 170.667-170.667 170.667-211.755 0-384-172.288-384-384v-35.712l-37.803-113.323c-53.419-28.928-90.197-84.779-90.197-149.632 0-94.123 76.587-170.667 170.667-170.667 79.275 0 145.493 54.613 164.565 128h54.827c19.072-73.387 85.291-128 164.565-128s145.493 54.613 164.565 128h6.144c23.595 0 42.667 19.115 42.667 42.667v170.667c0 11.307-4.48 22.144-12.501 30.123zM768 704c47.104 0 85.333-38.272 85.333-85.333v-213.333h-73.344l29.397 117.632-82.816 20.693-34.56-138.325h-222.677c0 164.651 134.016 298.667 298.667 298.667zM426.667 21.333c-47.104 0-85.333 38.272-85.333 85.333s38.229 85.333 85.333 85.333 85.333-38.272 85.333-85.333c0-47.104-38.229-85.333-85.333-85.333zM810.667 21.333c-47.104 0-85.333 38.272-85.333 85.333s38.229 85.333 85.333 85.333 85.333-38.272 85.333-85.333c0-47.104-38.229-85.333-85.333-85.333zM810.667 277.333c-79.275 0-145.493-54.613-164.565-128h-54.827c-17.749 68.352-76.544 119.552-148.565 126.379l14.72 44.288h420.907l60.331-60.373v-41.301c-31.317 35.84-76.8 59.008-128 59.008zM170.667 704v-469.333h-128v-85.333h128v-128h-170.667v-85.333h213.333c23.595 0 42.667 19.115 42.667 42.667v725.333h-85.333z" />
<glyph unicode="&#xe928;" glyph-name="gauge" d="M512 789.333c-258.773 0-469.333-210.517-469.333-469.333v-213.333h938.667v213.333c0 258.816-210.56 469.333-469.333 469.333zM438.144 192c14.805 25.472 42.368 42.667 73.856 42.667s59.093-17.195 73.856-42.667h-147.712zM896 192h-219.435c-15.488 59.648-62.251 106.368-121.899 121.941v176.725h-85.333v-176.725c-59.648-15.531-106.411-62.251-121.899-121.941h-219.435v128c0 211.712 172.245 384 384 384s384-172.288 384-384v-128zM554.667 618.667c0-23.564-19.103-42.667-42.667-42.667s-42.667 19.103-42.667 42.667c0 23.564 19.103 42.667 42.667 42.667s42.667-19.103 42.667-42.667zM765.867 531.243c0-23.564-19.103-42.667-42.667-42.667s-42.667 19.103-42.667 42.667c0 23.564 19.103 42.667 42.667 42.667s42.667-19.103 42.667-42.667zM853.333 320c0-23.564-19.103-42.667-42.667-42.667s-42.667 19.103-42.667 42.667c0 23.564 19.103 42.667 42.667 42.667s42.667-19.103 42.667-42.667zM343.509 531.2c0-23.588-19.122-42.709-42.709-42.709s-42.709 19.122-42.709 42.709c0 23.588 19.122 42.709 42.709 42.709s42.709-19.122 42.709-42.709zM256 320c0-23.564-19.103-42.667-42.667-42.667s-42.667 19.103-42.667 42.667c0 23.564 19.103 42.667 42.667 42.667s42.667-19.103 42.667-42.667z" />
<glyph unicode="&#xe929;" glyph-name="glue" d="M682.667 533.333h-341.333c-47.061 0-85.333-38.315-85.333-85.333v-341.333c0-47.061 38.272-85.333 85.333-85.333h341.333c47.061 0 85.333 38.272 85.333 85.333v341.333c0 47.019-38.272 85.333-85.333 85.333zM341.333 106.667v341.333h341.333l0.043-341.333h-341.376zM682.667 576v85.333h-97.237l-73.429 220.245-73.429-220.245h-97.237v-85.333zM426.667 277.333h170.667v-85.333h-170.667v85.333z" />
<glyph unicode="&#xe92a;" glyph-name="graduation-hat" d="M957.739 656.811l-426.667 213.333c-11.989 6.016-26.155 6.016-38.187 0l-426.667-213.333c-8.533-4.224-15.104-11.648-18.987-19.712-2.56-5.205-4.565-14.080-4.565-18.432v-245.973c0-23.509 19.115-42.667 42.667-42.667s42.667 19.157 42.667 42.667v182.912l85.333-34.133v-209.237c0-16.128 9.131-30.891 23.595-38.144 73.344-36.608 148.736-81.877 275.072-81.877s201.771 45.269 275.072 81.877c14.464 7.296 23.595 22.016 23.595 38.187v209.237l143.872 57.557c15.573 6.229 26.069 21.035 26.752 37.845 0.725 16.768-8.533 32.341-23.552 39.893zM725.333 338.645l-41.6-20.779c-107.563-53.803-235.947-53.803-343.467 0l-41.6 20.779v148.693l197.461-79.019c5.12-2.048 10.496-2.987 15.872-2.987s10.752 0.939 15.872 3.029l197.461 79.019v-148.736zM512 493.952l-322.603 129.067 322.603 161.237 322.603-161.237-322.603-129.067zM85.333 277.333c-23.552 0-42.667-19.115-42.667-42.667v-85.333c0-23.595 19.115-42.667 42.667-42.667s42.667 19.072 42.667 42.667v85.333c0 23.552-19.115 42.667-42.667 42.667z" />
<glyph unicode="&#xe92b;" glyph-name="handdrill" d="M981.333 661.333h-135.893c-17.664 49.579-64.555 85.333-120.107 85.333 0 23.595-19.115 42.667-42.667 42.667h-469.333c-94.123 0-170.667-76.587-170.667-170.667 0-75.179 49.195-138.411 116.821-161.109l-63.659-222.891h-53.163c-13.141 0-25.557-6.101-33.621-16.427s-10.965-23.851-7.765-36.608l42.667-170.667c4.736-18.987 21.803-32.299 41.387-32.299h298.667c19.584 0 36.651 13.355 41.387 32.299l42.667 170.667c3.2 12.8 0.299 26.283-7.765 36.608s-20.48 16.427-33.621 16.427h-42.667v85.333h42.667c79.275 0 145.536 54.571 164.608 128h91.392c23.552 0 42.667 19.072 42.667 42.667 55.552 0 102.443 35.755 120.107 85.333h135.893v85.333zM350.677 64h-232.021l-21.333 85.333h274.688l-21.333-85.333zM184.576 234.667l60.971 213.333h53.12v-213.333h-114.091zM426.667 405.333h-42.667v42.667h116.139c-14.805-25.387-42.027-42.667-73.472-42.667zM213.333 533.333c-47.061 0-85.333 38.229-85.333 85.333s38.272 85.333 85.333 85.333h426.667v-170.667h-426.667zM725.333 576v85.333c23.509 0 42.667-19.157 42.667-42.667s-19.157-42.667-42.667-42.667z" />
<glyph unicode="&#xe92c;" glyph-name="id-card" d="M213.376 234.667c0 78.549 49.451 128 128 128v0c78.549 0 128-49.451 128-128h-256zM426.709 490.667c0-47.128-38.205-85.333-85.333-85.333s-85.333 38.205-85.333 85.333c0 47.128 38.205 85.333 85.333 85.333s85.333-38.205 85.333-85.333zM554.709 490.667h256v-85.333h-256v85.333zM554.709 320h256v-85.333h-256v85.333zM853.376 746.667h-221.227c-17.664 49.579-64.597 85.333-120.107 85.333s-102.443-35.755-120.107-85.333h-221.227c-47.061 0-85.333-38.229-85.333-85.333v-512c0-47.061 38.272-85.333 85.333-85.333h682.667c47.061 0 85.333 38.272 85.333 85.333v512c0 47.104-38.272 85.333-85.333 85.333zM512.043 746.667c23.509 0 42.667-19.157 42.667-42.667s-19.157-42.667-42.667-42.667-42.667 19.157-42.667 42.667 19.157 42.667 42.667 42.667zM170.709 149.333v512h221.227c17.664-49.579 64.597-85.333 120.107-85.333s102.443 35.755 120.107 85.333h221.227l0.043-512h-682.709z" />
<glyph unicode="&#xe92d;" glyph-name="loading" d="M469.333 874.667h85.333v-213.333h-85.333v213.333zM378.307 764.971l64-110.848-73.899-42.667-64 110.848 73.899 42.667zM237.743 655.608l110.848-64.013-42.675-73.899-110.848 64.013 42.675 73.899zM170.709 490.667h128v-85.333h-128v85.333zM305.961 378.35l42.658-73.907-110.861-63.987-42.658 73.907 110.861 63.987zM368.47 284.621l73.907-42.658-63.987-110.861-73.907 42.658 63.987 110.861zM469.376 234.795h85.333v-128h-85.333v128zM655.679 284.727l63.953-110.824-73.907-42.65-63.953 110.824 73.907 42.65zM718.122 378.395l110.822-64.051-42.679-73.845-110.822 64.051 42.679 73.845zM725.291 490.795h128v-85.333h-128v85.333zM786.172 655.743l42.658-73.907-110.861-63.987-42.658 73.907 110.861 63.987zM645.648 765.021l73.907-42.658-63.987-110.861-73.907 42.658 63.987 110.861z" />
<glyph unicode="&#xe92e;" glyph-name="radioactive-circle" d="M512-64c-282.325 0-512 229.632-512 512s229.675 512 512 512 512-229.675 512-512-229.675-512-512-512zM512 874.667c-235.264 0-426.667-191.445-426.667-426.667 0-235.307 191.403-426.667 426.667-426.667s426.667 191.36 426.667 426.667c0 235.221-191.403 426.667-426.667 426.667zM448.256 558.379l-106.795 184.917c-102.016-58.923-170.795-169.045-170.795-295.296h213.333c0 47.36 25.984 88.235 64.256 110.379zM640 448h213.333c0 126.293-68.779 236.373-170.795 295.296l-106.795-184.875c38.272-22.187 64.256-63.061 64.256-110.421zM575.744 337.621c-18.816-10.923-40.405-17.621-63.744-17.621s-44.928 6.699-63.744 17.621l-106.795-185.003c50.219-29.056 108.331-45.952 170.539-45.952s120.32 16.896 170.539 45.952l-106.795 185.003z" />
<glyph unicode="&#xe92f;" glyph-name="key" d="M865.792 517.845l60.331 60.331-120.619 120.661 60.288 60.288-60.331 60.331-400.597-400.853c-31.36 18.219-67.328 29.397-106.197 29.397-117.803 0-213.333-95.531-213.333-213.333s95.531-213.333 213.333-213.333 213.333 95.531 213.333 213.333c0 48-16.427 91.819-43.221 127.445l155.691 155.648 120.619-120.661 60.373 60.288-120.661 120.747 60.331 60.331 120.661-120.619zM298.667 106.667c-70.699 0-128 57.301-128 128s57.301 128 128 128 128-57.301 128-128-57.301-128-128-128z" />
<glyph unicode="&#xe930;" glyph-name="refrigerator" d="M725.333 874.667h-426.667c-47.104 0-85.333-38.272-85.333-85.333v-640c0-31.445 17.28-58.667 42.667-73.515v-54.485h85.333v42.667h341.333v-42.667h85.333v54.485c25.387 14.848 42.667 42.069 42.667 73.515v640c0 47.061-38.229 85.333-85.333 85.333zM725.333 789.333v-213.333h-426.667v213.333h426.667zM725.333 149.333h-426.667v341.333h426.667v-341.333zM341.333 746.667h85.333v-128h-85.333v128zM341.333 448h85.333v-170.667h-85.333v170.667z" />
<glyph unicode="&#xe931;" glyph-name="ladder" d="M855.765 888.747l-34.859-99.413h-378.923l24.917 71.253-80.469 28.16-298.667-853.333 80.512-28.16 64.64 184.747h378.923l-54.741-156.587 80.512-28.16 298.667 853.333-80.512 28.16zM791.083 704l-29.909-85.333h-378.923l29.909 85.333h378.923zM731.349 533.333l-29.867-85.333h-378.923l29.867 85.333h378.923zM262.827 277.333l29.824 85.333h378.923l-29.824-85.333h-378.923z" />
<glyph unicode="&#xe932;" glyph-name="lawn-mower" d="M853.333 269.483v50.517c0 23.552-19.072 42.667-42.667 42.667h-42.667v42.667c0 70.571-57.429 128-128 128h-42.667v42.667h-85.333v-42.667h-42.667c-70.571 0-128-57.429-128-128v-42.667h-6.485l-79.445 476.288c-3.413 20.608-21.248 35.669-42.069 35.669h-128v-85.333h91.819l71.168-426.624h-120.32c-14.805 0-28.501-7.68-36.309-20.267-7.808-12.544-8.448-28.288-1.877-41.515l85.333-170.667c7.253-14.421 22.016-23.552 38.187-23.552h50.517c17.707-49.579 64.597-85.333 120.149-85.333s102.443 35.755 120.149 85.333h186.325c17.707-49.579 64.64-85.333 120.149-85.333 70.571 0 128 57.429 128 128 0.043 55.509-35.712 102.443-85.291 120.149zM426.667 405.333c0 23.552 19.157 42.667 42.667 42.667h170.667c23.509 0 42.667-19.115 42.667-42.667v-42.667h-256v42.667zM197.035 277.333h570.965v-7.851c-36.181-12.885-64.597-41.344-77.483-77.483h-186.325c-17.707 49.579-64.64 85.333-120.149 85.333s-102.443-35.755-120.149-85.333h-24.192l-42.667 85.333zM384 106.667c-23.509 0-42.667 19.115-42.667 42.667s19.157 42.667 42.667 42.667 42.667-19.115 42.667-42.667c0-23.552-19.157-42.667-42.667-42.667zM810.667 106.667c-23.509 0-42.667 19.115-42.667 42.667s19.157 42.667 42.667 42.667 42.667-19.115 42.667-42.667c0-23.552-19.157-42.667-42.667-42.667z" />
<glyph unicode="&#xe933;" glyph-name="list-bullets" d="M213.333 874.667c-70.571 0-128-57.387-128-128s57.429-128 128-128 128 57.429 128 128-57.429 128-128 128zM213.333 704c-23.509 0-42.667 19.157-42.667 42.667s19.157 42.667 42.667 42.667c23.552 0 42.667-19.157 42.667-42.667s-19.115-42.667-42.667-42.667zM213.333 576c-70.571 0-128-57.429-128-128s57.429-128 128-128 128 57.429 128 128-57.429 128-128 128zM213.333 405.333c-23.509 0-42.667 19.157-42.667 42.667s19.157 42.667 42.667 42.667c23.552 0 42.667-19.157 42.667-42.667s-19.115-42.667-42.667-42.667zM213.333 277.333c-70.571 0-128-57.429-128-128s57.429-128 128-128 128 57.429 128 128-57.429 128-128 128zM213.333 106.667c-23.509 0-42.667 19.157-42.667 42.667s19.157 42.667 42.667 42.667c23.552 0 42.667-19.157 42.667-42.667s-19.115-42.667-42.667-42.667zM426.667 789.333h512v-85.333h-512v85.333zM426.667 490.667h512v-85.333h-512v85.333zM426.667 192h512v-85.333h-512v85.333z" />
<glyph unicode="&#xe934;" glyph-name="location-map" d="M928.384 114.901l-66.816 300.629c-9.344 42.112-50.432 75.136-93.568 75.136h-42.667v-85.333h42.667c3.456 0 9.515-4.907 10.283-8.277l64.512-290.389h-661.589l64.555 290.389c0.725 3.371 6.784 8.277 10.24 8.277h42.667v85.333h-42.667c-43.136 0-84.224-33.024-93.568-75.136l-66.816-300.629c-5.248-23.637 0-47.445 14.379-65.365s36.48-28.203 60.672-28.203h682.667c24.192 0 46.293 10.283 60.672 28.203s19.627 41.771 14.379 65.365zM512 789.333c-94.251 0-170.667-76.416-170.667-170.667 0-128 170.667-341.333 170.667-341.333s170.667 213.333 170.667 341.333c0 94.251-76.416 170.667-170.667 170.667zM512 533.333c-47.104 0-85.333 38.229-85.333 85.333s38.229 85.333 85.333 85.333 85.333-38.229 85.333-85.333-38.229-85.333-85.333-85.333z" />
<glyph unicode="&#xe935;" glyph-name="location-pin" d="M512 448c-70.571 0-128 57.429-128 128s57.429 128 128 128 128-57.429 128-128-57.429-128-128-128zM512 618.667c-23.509 0-42.667-19.157-42.667-42.667 0-23.552 19.157-42.667 42.667-42.667s42.667 19.115 42.667 42.667c0 23.509-19.157 42.667-42.667 42.667zM512-7.125c-100.651 134.272-298.667 415.189-298.667 583.125 0 164.693 133.973 298.667 298.667 298.667s298.667-133.973 298.667-298.667c0-167.936-198.016-448.896-298.667-583.125zM512 789.333c-117.632 0-213.333-95.701-213.333-213.333 0-110.549 132.565-323.541 213.333-439.083 80.725 115.584 213.333 328.619 213.333 439.083 0 117.632-95.701 213.333-213.333 213.333z" />
<glyph unicode="&#xe936;" glyph-name="location-pin2" d="M682.667 618.667c0 94.123-76.501 170.667-170.752 170.667-94.080 0-170.581-76.544-170.581-170.667 0-75.477 49.323-144.427 128-164.608v-347.392h85.291v347.392c73.429 19.029 128.043 85.291 128.043 164.608zM512.085 533.376h-0.171c-47.104 0-85.248 38.101-85.248 85.291 0 47.019 38.229 85.333 85.419 85.333 47.019 0 85.248-38.315 85.248-85.333 0-47.061-38.229-85.291-85.248-85.291z" />
<glyph unicode="&#xe937;" glyph-name="lock" d="M725.333 528.64v132.693c0 117.632-95.701 213.333-213.333 213.333s-213.333-95.701-213.333-213.333v-132.693c-52.693-53.888-85.333-127.488-85.333-208.64 0-164.693 134.016-298.667 298.667-298.667s298.667 133.973 298.667 298.667c0 81.152-32.64 154.752-85.333 208.64zM512 789.333c70.571 0 128-57.429 128-128v-71.936c-38.827 18.603-82.176 29.269-128 29.269s-89.173-10.667-128-29.269v71.936c0 70.571 57.429 128 128 128zM512 106.667c-117.632 0-213.333 95.701-213.333 213.333s95.701 213.333 213.333 213.333 213.333-95.701 213.333-213.333-95.701-213.333-213.333-213.333zM576 256c0-35.346-28.654-64-64-64s-64 28.654-64 64c0 35.346 28.654 64 64 64s64-28.654 64-64z" />
<glyph unicode="&#xe938;" glyph-name="measuring-tool" d="M896 533.333h-426.667c-23.552 0-42.667-19.115-42.667-42.667v-426.667c0-23.595 19.115-42.667 42.667-42.667h341.333c11.307 0 22.187 4.48 30.165 12.501l85.333 85.333c8.021 7.979 12.501 18.816 12.501 30.165v341.333c0 23.552-19.115 42.667-42.667 42.667zM512 448h341.333v-256h-85.333v-85.333h-256v341.333zM896 874.667h-768c-23.552 0-42.667-19.115-42.667-42.667v-768c0-23.595 19.115-42.667 42.667-42.667h213.333c23.552 0 42.667 19.072 42.667 42.667v512h512c23.552 0 42.667 19.072 42.667 42.667v213.333c0 23.552-19.115 42.667-42.667 42.667zM853.333 661.333h-42.667v85.333h-85.333v-85.333h-85.333v85.333h-85.333v-85.333h-85.333v85.333h-85.333v-85.333h-42.667c-23.552 0-42.667-19.115-42.667-42.667v-42.667h-85.333v-85.333h85.333v-85.333h-85.333v-85.333h85.333v-85.333h-85.333v-85.333h85.333v-42.667h-128v682.667h682.667v-128z" />
<glyph unicode="&#xe939;" glyph-name="money-note-coin" d="M597.333 512c82.347 0 149.333 66.987 149.333 149.333s-66.987 149.333-149.333 149.333-149.333-66.987-149.333-149.333 66.987-149.333 149.333-149.333zM597.333 725.333c35.285 0 64-28.715 64-64s-28.715-64-64-64-64 28.715-64 64 28.715 64 64 64zM981.333 960h-768c-23.552 0-42.667-19.115-42.667-42.667v-472.747c13.995 2.005 28.16 3.413 42.667 3.413 14.848 0 28.416-1.451 42.667-3.541 1.237 1.237 0 156.501 0 156.501l93.099-93.056c29.909 13.227 62.379 21.461 96.469 24.192l-189.568 189.568v153.003h409.003l273.664-273.707v-152.96h-260.523c25.003-24.491 45.525-53.419 60.715-85.333h242.475c23.552 0 42.667 19.115 42.667 42.667v512c0 23.552-19.115 42.667-42.667 42.667zM938.667 721.664l-153.003 153.003h153.003v-153.003zM469.333 448c-75.947 0-142.336-40.235-180.139-100.181-23.595 9.216-48.981 14.848-75.861 14.848-117.632 0-213.333-95.701-213.333-213.333s95.701-213.333 213.333-213.333c75.819 0 141.696 40.277 179.413 100.139 23.851-9.259 49.493-14.805 76.587-14.805 117.632 0 213.333 95.701 213.333 213.333s-95.701 213.333-213.333 213.333zM213.333 21.333c-70.571 0-128 57.429-128 128s57.429 128 128 128c16.299 0 31.787-3.243 46.080-8.875-1.792-11.136-3.413-22.229-3.413-33.792 0-60.16 25.216-114.304 65.408-153.131-22.656-36.053-62.464-60.203-108.075-60.203zM469.333 106.667c-70.571 0-128 57.429-128 128s57.429 128 128 128 128-57.429 128-128-57.429-128-128-128z" />
<glyph unicode="&#xe93a;" glyph-name="money-note" d="M896 234.667v512c0 23.552-19.115 42.667-42.667 42.667h-768c-23.552 0-42.667-19.115-42.667-42.667v-512c0-23.552 19.115-42.667 42.667-42.667h768c23.552 0 42.667 19.115 42.667 42.667zM810.667 550.997l-152.96 153.003h152.96v-153.003zM128 430.293l153.003-152.96h-153.003v152.96zM401.664 277.333l-273.664 273.664v153.003h409.003l273.664-273.664v-153.003h-409.003zM469.333 640c-82.347 0-149.333-66.987-149.333-149.333s66.987-149.333 149.333-149.333 149.333 66.987 149.333 149.333-66.987 149.333-149.333 149.333zM469.333 426.667c-35.285 0-64 28.715-64 64s28.715 64 64 64 64-28.715 64-64-28.715-64-64-64zM938.667 618.667v-469.333h-725.333v-85.333h768c23.552 0 42.667 19.115 42.667 42.667v512h-85.333z" />
<glyph unicode="&#xe93b;" glyph-name="music-note" d="M834.603 824.661c-11.733 7.979-26.624 9.557-39.765 4.309l-426.667-170.667c-16.213-6.528-26.837-22.229-26.837-39.637v-271.019c-19.499 9.344-41.003 15.019-64 15.019-82.347 0-149.333-66.987-149.333-149.333s66.987-149.333 149.333-149.333 149.333 66.987 149.333 149.333v376.405l341.333 136.533v-250.624c-19.499 9.344-41.003 15.019-64 15.019-82.347 0-149.333-66.987-149.333-149.333s66.987-149.333 149.333-149.333 149.333 66.987 149.333 149.333v448c0 14.165-7.040 27.392-18.731 35.328zM277.333 149.333c-35.285 0-64 28.715-64 64s28.715 64 64 64 64-28.715 64-64-28.715-64-64-64zM704 277.333c-35.285 0-64 28.715-64 64s28.715 64 64 64 64-28.715 64-64-28.715-64-64-64z" />
<glyph unicode="&#xe93c;" glyph-name="navigation-drawer" d="M213.333 277.333h597.333v-128h-597.333v128zM213.333 490.667h597.333v-128h-597.333v128zM213.333 704h597.333v-128h-597.333v128z" />
<glyph unicode="&#xe93d;" glyph-name="paint-brush" d="M876.501 682.709c0 28.459-11.093 55.211-31.232 75.264-40.277 40.363-110.592 40.363-150.869 0.085l-135.808-135.765-60.288 60.373c-32.213 32.256-88.405 32.256-120.661 0.043l-120.661-120.661 30.208-30.208-30.208-30.208c-61.525-61.525-158.123-84.736-205.099-99.157l264.107-264.107c34.261-34.261 74.667-52.437 116.907-52.437v0c70.059 0 120.235 48.213 125.739 53.717l60.373 60.288 30.165-30.123 120.661 120.661c16.128 16.128 25.003 37.547 25.003 60.331s-8.875 44.16-25.003 60.288l-60.373 60.373 135.765 135.808c20.181 20.139 31.275 46.933 31.275 75.435zM498.304 199.979c-0.299-0.299-30.251-28.757-65.408-28.757v0c-19.627 0-38.144 9.003-56.576 27.435l-168.363 168.32c34.176 16.427 75.989 40.875 109.355 74.283l30.165 30.208 211.2-211.2-60.373-60.288zM649.173 290.517l-271.531 271.531 60.331 60.288 271.573-271.531-60.373-60.288zM784.939 667.605l-135.765-135.808-30.165 30.208 135.765 135.723c8.363 8.277 21.717 8.363 30.165-0.085 8.277-8.192 8.363-21.675 0-30.037z" />
<glyph unicode="&#xe93e;" glyph-name="paint-palette" d="M512 874.667c-235.264 0-426.667-191.403-426.667-426.667s191.403-426.667 426.667-426.667c19.712 0 39.381 1.323 58.368 3.968 45.312 6.229 82.475 36.992 96.981 80.256 14.635 43.307 3.584 90.24-28.8 122.581l-42.112 42.155c-9.771 9.771-12.672 24.363-7.381 37.205 1.323 3.072 5.205 12.501 31.531 12.501h198.613c63.659 0 119.467 59.776 119.467 128 0 235.264-191.403 426.667-426.667 426.667zM819.2 405.333h-198.613c-52.992 0-93.184-23.808-110.336-65.195-18.603-44.8-8.448-95.915 25.856-130.219 21.803-21.845 60.245-47.915 50.389-77.141-9.259-27.605-45.269-26.112-74.496-26.112-188.203 0-341.333 153.131-341.333 341.333s153.131 341.333 341.333 341.333 341.333-153.131 341.333-341.333c0-20.736-17.536-42.667-34.133-42.667zM469.333 746.667c-47.061 0-85.333-38.315-85.333-85.333 0-47.061 38.272-85.333 85.333-85.333s85.333 38.272 85.333 85.333c0 47.019-38.272 85.333-85.333 85.333zM298.667 533.333c-47.061 0-85.333-38.315-85.333-85.333 0-47.061 38.272-85.333 85.333-85.333s85.333 38.272 85.333 85.333c0 47.019-38.272 85.333-85.333 85.333zM682.667 618.667c-47.061 0-85.333-38.315-85.333-85.333 0-47.061 38.272-85.333 85.333-85.333s85.333 38.272 85.333 85.333c0 47.019-38.272 85.333-85.333 85.333z" />
<glyph unicode="&#xe93f;" glyph-name="paint-roll" d="M810.667 704h-85.333v42.667c0 47.019-38.272 85.333-85.333 85.333h-469.333c-47.061 0-85.333-38.315-85.333-85.333v-170.667c0-47.061 38.272-85.333 85.333-85.333h469.333c47.061 0 85.333 38.272 85.333 85.333v42.667h85.333v-170.667h-384c-47.061 0-85.333-38.315-85.333-85.333v-85.333h-42.667v-213.333c0-47.061 38.272-85.333 85.333-85.333s85.333 38.272 85.333 85.333v213.333h-42.667v85.333h384c47.061 0 85.333 38.272 85.333 85.333v170.667c0 47.019-38.272 85.333-85.333 85.333zM170.667 576v170.667h469.333l0.043-170.667h-469.376z" />
<glyph unicode="&#xe940;" glyph-name="pen-brush" d="M777.515 392.832l60.331-60.331 128 128c16.683 16.64 16.683 43.648 0 60.331l-54.699 54.699 28.032 27.989c52.139 52.139 52.139 137.088 0 189.269-50.517 50.56-138.667 50.56-189.269 0l-223.659-223.659-104.576 104.533c-2.731 41.216-19.371 79.744-48.853 109.227-60.8 60.843-108.715 58.027-152.107 55.851-27.904-1.365-54.571-8.789-102.827 39.424l-61.568 61.44-10.965-86.272c-1.024-8.149-24.192-201.557 86.059-311.765 29.483-29.483 68.053-46.208 109.269-48.896l104.533-104.533-78.805-78.805c-3.243-3.2-5.931-6.955-8.021-11.093l-128.896-257.835c-8.192-16.427-4.992-36.309 8.021-49.237 13.099-13.141 33.024-16.171 49.237-8.021l257.835 128.896c4.096 2.048 7.851 4.736 11.093 8.021l78.805 78.805 182.699-182.699c24.149-24.192 56.277-37.504 90.496-37.504s66.347 13.312 90.496 37.461c24.192 24.149 37.504 56.32 37.504 90.539 0 34.176-13.312 66.347-37.504 90.496l-182.699 182.699 135.339 135.339 24.533-24.533-97.835-97.835zM878.763 732.501c18.901-18.987 18.901-49.749 0-68.693l-34.304-34.261-68.565 68.608 34.304 34.304c18.347 18.347 50.304 18.304 68.565 0.043zM129.28 766.592c36.779-15.957 66.944-14.507 95.616-13.141 75.605 3.797 112.512-46.848 112.512-91.264 0-22.741-8.875-44.16-25.003-60.331-32.256-32.299-88.448-32.299-120.704 0-44.203 44.373-58.539 112.256-62.421 164.736zM338.347 515.669c12.331 7.253 24.064 15.531 34.432 25.899s18.645 22.059 25.899 34.389l67.2-67.157-60.331-60.331-67.2 67.2zM400.213 185.301l-137.173-68.523 68.565 137.173 383.957 383.915 68.565-68.608-383.915-383.957zM837.845 136.832c16.427-16.427 16.896-43.477 0-60.331-16.085-16.128-44.16-16.128-60.331 0l-182.699 182.699 60.331 60.331 182.699-182.699z" />
<glyph unicode="&#xe941;" glyph-name="pencil" d="M888.363 824.363c-32.427 32.469-75.605 50.304-121.472 50.304-45.824 0-89.003-17.835-121.429-50.304l-486.784-486.741c0 0-0.043-0.128-0.128-0.171-3.456-3.499-9.344-12.715-11.136-19.669l-60.8-243.371c-3.669-14.507 0.64-29.952 11.221-40.491l0.085-0.085c10.581-10.581 25.941-14.891 40.491-11.264l243.371 60.885c6.955 1.792 16.213 7.68 19.669 11.136 0.043 0.043 0.171 0.128 0.171 0.128l486.784 486.699c32.427 32.469 50.304 75.563 50.261 121.472 0 45.867-17.835 89.003-50.261 121.472h-0.043zM614.869 672.939l122.155-122.155-365.568-365.568-122.155 122.155 365.568 365.568zM186.667 122.624l25.387 101.291 75.947-75.989-101.333-25.301zM828.117 763.989c32.597-32.64 32.597-89.557 0-122.197l-30.677-30.72-122.283 122.24 30.763 30.677c32.64 32.597 89.557 32.64 122.197 0z" />
<glyph unicode="&#xe942;" glyph-name="pencil-ruler" d="M256 789.333c-70.571 0-128-57.429-128-128v-482.261l128-192 128 192v482.261c0 70.571-57.429 128-128 128zM298.667 204.928l-42.667-64-42.667 64v328.405h85.333v-328.405zM213.333 618.667v42.667c0 23.552 19.157 42.667 42.667 42.667s42.667-19.115 42.667-42.667v-42.667h-85.333zM810.667 917.333h-256c-47.061 0-85.333-38.315-85.333-85.333v-768c0-47.061 38.272-85.333 85.333-85.333h256c47.061 0 85.333 38.272 85.333 85.333v768c0 47.019-38.272 85.333-85.333 85.333zM554.667 64v128h128v85.333h-128v128h128v85.333h-128v128h128v85.333h-128v128h256l0.043-768h-256.043z" />
<glyph unicode="&#xe943;" glyph-name="phone2" d="M853.333 21.333h-213.333c-282.283 0-512 229.675-512 512v213.333c0 47.104 38.272 85.333 85.333 85.333h170.667c47.061 0 85.333-38.229 85.333-85.333v-170.667c0-45.739-36.181-83.157-81.408-85.248 18.645-110.251 100.992-192.853 209.451-210.091 1.792 45.525 39.381 82.005 85.291 82.005h170.667c47.061 0 85.333-38.229 85.333-85.333v-170.667c0-47.104-38.229-85.333-85.333-85.333zM213.333 746.667v-213.333c0-235.264 191.403-426.667 426.667-426.667h213.376l-0.043 170.667h-170.667v-42.667c0-23.595-19.115-42.667-42.667-42.667-191.488 0-338.261 146.475-341.333 340.651-0.128 11.435 4.267 22.443 12.288 30.592s18.944 12.757 30.379 12.757h42.667v170.667h-170.667z" />
<glyph unicode="&#xe944;" glyph-name="home" d="M926.165 435.541l-115.499 115.499v195.669c0 23.509-19.115 42.667-42.667 42.667h-128c-18.347 0-33.664-11.733-39.68-27.989l-58.155 58.112c-16.683 16.64-43.648 16.64-60.331 0l-384-384c-12.203-12.203-15.872-30.549-9.259-46.507s22.144-26.283 39.424-26.283h85.333v-256c0-47.061 38.272-85.333 85.333-85.333h85.333c47.061 0 85.333 38.272 85.333 85.333v128h85.333v-128c0-47.061 38.272-85.333 85.333-85.333h85.333c47.061 0 85.333 38.272 85.333 85.333v256h85.333c17.237 0 32.811 10.368 39.424 26.325s2.944 34.304-9.259 46.507zM682.667 704.043h42.667v-67.669l-42.667 42.667v25.003zM768 448.043c-23.552 0-42.667-19.157-42.667-42.667l0.043-298.667h-85.376v170.667c0 23.509-19.115 42.667-42.667 42.667h-170.667c-23.552 0-42.667-19.157-42.667-42.667v-170.667h-85.333v298.667c0 23.509-19.115 42.667-42.667 42.667h-25.003l281.003 281.003 281.003-280.96h-25.003z" />
<glyph unicode="&#xe945;" glyph-name="question" d="M565.333 309.333h-106.667v160h53.333c58.88 0 106.667 47.84 106.667 106.667 0 58.88-47.787 106.667-106.667 106.667s-106.667-47.787-106.667-106.667h-106.667c0 117.6 95.733 213.333 213.333 213.333s213.333-95.733 213.333-213.333c0-99.2-68.107-182.827-160-206.667v-60zM578.667 202.667c0-36.819-29.848-66.667-66.667-66.667s-66.667 29.848-66.667 66.667c0 36.819 29.848 66.667 66.667 66.667s66.667-29.848 66.667-66.667z" />
<glyph unicode="&#xe946;" glyph-name="quill-circle" d="M512 21.333c-235.264 0-426.667 191.445-426.667 426.667s191.403 426.667 426.667 426.667 426.667-191.403 426.667-426.667-191.403-426.667-426.667-426.667zM512 789.333c-188.203 0-341.333-153.131-341.333-341.333s153.131-341.333 341.333-341.333 341.333 153.131 341.333 341.333-153.131 341.333-341.333 341.333zM568.832 602.027v-114.389l-75.861 75.861c-15.189-9.771-29.227-20.437-41.003-32.213-68.779-68.821-69.461-129.323-48.213-168.021l-62.421-43.264v-42.667l86.187 57.472c36.992-29.696 104.192-38.699 181.931 39.040 83.413 83.413 115.883 273.365 115.883 273.365s-78.336-13.483-156.501-45.184z" />
<glyph unicode="&#xe947;" glyph-name="gift" d="M853.333 618.667h-132.907c19.243 9.984 37.504 22.229 52.736 37.504 49.92 49.877 49.92 131.072 0 180.992-48.384 48.341-132.608 48.341-180.992 0-69.845-69.845-79.317-201.301-80.171-216.064-0.853 14.805-10.325 146.261-80.171 216.064-48.384 48.341-132.693 48.299-180.992 0-24.149-24.149-37.504-56.32-37.504-90.496s13.355-66.347 37.504-90.496c15.232-15.275 33.451-27.477 52.736-37.504h-132.907c-47.104 0-85.333-38.272-85.333-85.333v-128c0-23.552 19.072-42.667 42.667-42.667v-256c0-47.061 38.229-85.333 85.333-85.333h597.333c47.104 0 85.333 38.272 85.333 85.333v256c23.595 0 42.667 19.115 42.667 42.667v128c0 47.061-38.229 85.333-85.333 85.333zM341.333 106.667h-128v256h128v-256zM341.333 448h-170.667v85.333h170.667v-85.333zM311.168 716.501c-8.064 8.064-12.501 18.773-12.501 30.165s4.437 22.101 12.501 30.165c8.064 8.064 18.731 12.459 30.165 12.459s22.101-4.437 30.165-12.501c25.173-25.131 39.851-70.272 47.701-107.947-37.547 7.893-82.987 22.571-108.032 47.659zM597.333 106.667h-170.667v256h170.667v-256zM597.333 448h-170.667v85.333h170.667v-85.333zM652.501 776.789c8.064 8.064 18.731 12.501 30.165 12.501s22.101-4.437 30.165-12.459c16.597-16.683 16.64-43.691 0-60.331-25.216-25.216-70.4-39.936-108.075-47.744 7.851 37.675 22.571 82.859 47.744 108.032zM810.667 106.667h-128v256h128v-256zM853.333 448h-170.667v85.333h170.667v-85.333z" />
<glyph unicode="&#xe948;" glyph-name="medal" d="M801.28 858.624c-8.107 10.112-20.352 16-33.28 16h-512c-12.928 0-25.173-5.888-33.28-16-8.107-10.069-11.179-23.296-8.405-35.925l85.333-384 83.328 18.517-73.813 332.075h126.037l34.133-170.667h85.333l34.133 170.667h126.037l-73.813-332.075 83.328-18.517 85.333 384c2.773 12.629-0.299 25.856-8.405 35.925zM682.667 21.291c-6.485 0-13.056 1.493-19.072 4.48l-151.595 75.819-151.595-75.776c-14.933-7.467-32.811-5.547-45.739 4.864-13.013 10.453-18.731 27.52-14.763 43.605l38.101 152.363-74.837 112.299c-8.747 13.099-9.557 29.909-2.133 43.776 7.467 13.909 21.888 22.571 37.632 22.571h101.632l73.557 147.072c14.464 28.885 61.867 28.885 76.331 0l73.557-147.072h101.589c15.744 0 30.165-8.661 37.632-22.528 7.424-13.867 6.613-30.72-2.133-43.776l-74.837-112.299 38.101-152.363c4.011-16.128-1.749-33.152-14.763-43.605-7.68-6.272-17.152-9.429-26.667-9.429zM512 191.957c6.528 0 13.099-1.493 19.072-4.48l87.68-43.819-20.181 80.683c-2.901 11.648-0.768 24.021 5.931 34.005l41.088 61.653h-48.256c-16.171 0-30.933 9.131-38.187 23.595l-47.147 94.293-47.147-94.336c-7.253-14.464-22.016-23.595-38.187-23.595h-48.256l41.088-61.653c6.656-9.984 8.832-22.315 5.931-34.005l-20.181-80.683 87.68 43.819c5.973 3.029 12.544 4.523 19.072 4.523z" />
<glyph unicode="&#xe949;" glyph-name="ruler" d="M955.093 711.296l-180.992 181.035c-32.256 32.256-88.533 32.171-120.661 0l-543.061-543.061c-16.171-16.043-25.045-37.461-25.045-60.288s8.875-44.331 25.003-60.416l180.992-180.992c16.085-16.128 37.547-25.003 60.373-25.003s44.245 8.875 60.373 25.003l543.019 543.061c16.085 16.128 24.96 37.547 24.96 60.331 0.043 22.827-8.875 44.245-24.96 60.331zM351.744 107.904v0l-181.077 180.992 90.539 90.496 90.539-90.496 60.331 60.331-90.539 90.496 90.539 90.581 90.496-90.581 60.331 60.373-90.496 90.539 90.539 90.496 90.539-90.581 60.331 60.373-90.539 90.539 90.496 90.539 180.992-181.077-543.019-543.019z" />
<glyph unicode="&#xe94a;" glyph-name="megaphone" d="M794.24 780.331c-10.368 8.064-23.936 10.965-36.565 7.765l-506.923-126.763h-122.752c-47.104 0-85.333-38.229-85.333-85.333v-170.667c0-47.019 38.229-85.333 85.333-85.333h85.333v-85.333c0-9.259 2.987-18.176 8.533-25.6l128-170.667 68.267 51.2-119.467 159.317v59.093l459.008-114.731c3.413-0.853 6.869-1.28 10.325-1.28 9.429 0 18.688 3.157 26.24 9.088 10.325 8.064 16.427 20.437 16.427 33.579v512c0 13.184-6.101 25.6-16.427 33.664zM128 576h85.333v-170.667h-85.333v170.667zM725.333 289.323l-426.667 106.667v189.355l426.667 106.667v-402.688zM853.333 610.816v-240.256c49.579 17.664 85.333 64.597 85.333 120.064 0 55.637-35.755 102.528-85.333 120.192z" />
<glyph unicode="&#xe94b;" glyph-name="share" d="M768 362.667c-51.2 0-96.683-23.083-128-58.923l-217.259 108.587c2.517 11.477 3.925 23.381 3.925 35.669s-1.408 24.149-3.925 35.712l217.259 108.587c31.317-35.84 76.8-58.965 128-58.965 94.080 0 170.667 76.587 170.667 170.667 0 94.123-76.587 170.667-170.667 170.667s-170.667-76.544-170.667-170.667c0-12.245 1.408-24.149 3.925-35.669l-217.259-108.587c-31.317 35.797-76.8 58.923-128 58.923-94.080 0-170.667-76.544-170.667-170.667 0-94.080 76.587-170.667 170.667-170.667 51.2 0 96.683 23.168 128 59.008l217.259-108.629c-2.517-11.563-3.925-23.467-3.925-35.712 0-94.080 76.587-170.667 170.667-170.667s170.667 76.587 170.667 170.667c0 94.123-76.587 170.667-170.667 170.667zM768 789.333c47.104 0 85.333-38.187 85.333-85.333 0-47.104-38.229-85.333-85.333-85.333s-85.333 38.229-85.333 85.333c0 47.147 38.229 85.333 85.333 85.333zM256 362.667c-47.104 0-85.333 38.229-85.333 85.333 0 47.147 38.229 85.333 85.333 85.333s85.333-38.187 85.333-85.333c0-47.104-38.229-85.333-85.333-85.333zM768 106.667c-47.104 0-85.333 38.229-85.333 85.333 0 47.147 38.229 85.333 85.333 85.333s85.333-38.187 85.333-85.333c0-47.104-38.229-85.333-85.333-85.333z" />
<glyph unicode="&#xe94c;" glyph-name="shipping-truck" d="M853.333 789.333h-426.667c-47.104 0-85.333-38.315-85.333-85.333v-42.667h-85.333c-94.080 0-170.667-76.544-170.667-170.667v-256c0-23.552 19.072-42.667 42.667-42.667h93.227c17.664-49.579 64.555-85.333 120.107-85.333s102.443 35.755 120.149 85.333h143.701c17.664-49.579 64.597-85.333 120.107-85.333s102.443 35.755 120.149 85.333h50.56c23.595 0 42.667 19.115 42.667 42.667v469.333c0 47.019-38.229 85.333-85.333 85.333zM853.333 704v-426.667h-7.851c-17.707 49.579-64.64 85.333-120.149 85.333s-102.443-35.755-120.149-85.333h-143.659c-7.253 20.224-19.2 37.931-34.816 52.011v374.656h426.624zM170.667 490.667c0 47.061 38.229 85.333 85.333 85.333h85.333v-213.333c-55.552 0-102.443-35.755-120.149-85.333h-50.517v213.333zM341.333 192c-23.509 0-42.667 19.115-42.667 42.667 0 23.509 19.157 42.667 42.667 42.667s42.667-19.157 42.667-42.667c0-23.552-19.157-42.667-42.667-42.667zM725.333 192c-23.509 0-42.667 19.115-42.667 42.667 0 23.509 19.157 42.667 42.667 42.667s42.667-19.157 42.667-42.667c0-23.552-19.157-42.667-42.667-42.667zM213.333 533.333h85.333v-85.333h-85.333v85.333z" />
<glyph unicode="&#xe94d;" glyph-name="shovel-cement" d="M870.997 892.331c-33.323 33.323-87.339 33.323-120.661 0l-120.704-120.661 29.568-29.568-61.867-61.867v-213.461l-33.493-34.005-90.496 90.539c-27.435 27.477-66.688 39.936-105.557 32-38.357-7.723-70.187-33.92-85.077-70.059l-78.891-280.021c-16.555-43.179-6.315-91.733 26.411-124.544 22.059-22.059 51.413-34.219 82.688-34.219 18.645 0 320.981 73.088 331.947 76.629 36.267 14.891 62.464 46.72 70.101 85.077 7.68 38.272-4.224 77.739-31.915 105.515l-58.795 58.795 58.411 59.264v213.163l36.864 36.821 30.805-30.805 120.661 120.704c33.323 33.365 33.323 87.381 0 120.704zM614.827 203.093c-11.264-2.688-279.936-65.749-289.963-68.949-11.605-4.779-25.387-2.048-34.261 6.869-9.003 9.003-11.691 22.443-6.827 34.304l78.677 279.211c4.267 8.832 12.416 15.147 22.101 17.067 10.411 2.176 20.992-1.152 28.416-8.661l209.664-209.621c7.467-7.509 10.667-18.133 8.619-28.501-1.92-9.387-7.936-17.408-16.427-21.717z" />
<glyph unicode="&#xe94e;" glyph-name="slider" d="M853.333 874.709h-682.667c-47.061 0-85.333-38.315-85.333-85.333v-682.667c0-47.061 38.272-85.333 85.333-85.333h682.667c47.061 0 85.333 38.272 85.333 85.333v682.667c0 47.019-38.272 85.333-85.333 85.333zM682.667 106.709v341.333h-85.333v-341.333h-170.667v128h-85.333v-128h-170.667v682.667h170.667v-341.333h85.333v341.333h170.667v-128h85.333v128h170.667l0.043-682.667h-170.709zM256 405.376h256v-128h-256v128zM512 618.709h256v-128h-256v128z" />
<glyph unicode="&#xe94f;" glyph-name="switch" d="M853.333 21.376h-682.667c-47.104 0-85.333 38.272-85.333 85.333v682.667c0 47.019 38.229 85.333 85.333 85.333h682.667c47.104 0 85.333-38.315 85.333-85.333v-682.667c0-47.061-38.229-85.333-85.333-85.333zM170.667 789.376v-682.667h682.539l0.128 682.667h-682.667zM341.333 704.043v-512h341.333v512h-341.333zM426.667 277.376v170.667h170.667v-170.667h-170.667z" />
<glyph unicode="&#xe950;" glyph-name="table" d="M938.667 789.333h-853.333c-23.595 0-42.667-19.115-42.667-42.667v-640h85.333v426.667h426.667v-384c0-23.552 19.072-42.667 42.667-42.667h341.333c23.595 0 42.667 19.115 42.667 42.667v597.333c0 23.552-19.072 42.667-42.667 42.667zM896 704v-170.667h-256v170.667h256zM128 618.667v85.333h426.667v-85.333h-426.667zM640 192v256h256v-256h-256zM768 618.667c0-23.564-19.103-42.667-42.667-42.667s-42.667 19.103-42.667 42.667c0 23.564 19.103 42.667 42.667 42.667s42.667-19.103 42.667-42.667zM768 362.667c0-23.564-19.103-42.667-42.667-42.667s-42.667 19.103-42.667 42.667c0 23.564 19.103 42.667 42.667 42.667s42.667-19.103 42.667-42.667z" />
<glyph unicode="&#xe951;" glyph-name="tag" d="M426.667 21.333c10.923 0 21.845 4.181 30.165 12.501l469.333 469.333c8.021 7.979 12.501 18.816 12.501 30.165v298.667c0 23.595-19.072 42.667-42.667 42.667h-298.667c-11.349 0-22.187-4.48-30.165-12.501l-469.333-469.333c-16.683-16.683-16.683-43.648 0-60.331l298.667-298.667c8.32-8.32 19.243-12.501 30.165-12.501v0zM853.333 550.997l-426.667-426.667-238.336 238.336 426.667 426.667h238.336v-238.336zM640 661.333c0-47.128 38.205-85.333 85.333-85.333s85.333 38.205 85.333 85.333c0 47.128-38.205 85.333-85.333 85.333s-85.333-38.205-85.333-85.333z" />
<glyph unicode="&#xe952;" glyph-name="toolbox" d="M853.333 661.376h-128v85.333c0 47.019-38.272 85.333-85.333 85.333h-256c-47.061 0-85.333-38.315-85.333-85.333v-85.333h-128c-70.571 0-128-57.429-128-128v-170.667h42.667v-213.333c0-70.571 57.429-128 128-128h597.333c70.571 0 128 57.429 128 128v213.333h42.667v170.667c0 70.571-57.429 128-128 128zM384 746.709h256v-85.333h-256v85.333zM853.333 149.376c0-23.595-19.157-42.667-42.667-42.667h-597.333c-23.509 0-42.667 19.072-42.667 42.667v213.333h170.667c0-47.061 38.272-85.333 85.333-85.333h170.667c47.061 0 85.333 38.272 85.333 85.333h170.667v-213.333zM426.667 362.709v85.333h170.667l-0.128-85.333h-170.539zM896 448.043h-213.333c0 47.019-38.272 85.333-85.333 85.333h-170.667c-47.061 0-85.333-38.315-85.333-85.333h-213.333v85.333c0 23.509 19.157 42.667 42.667 42.667h682.667c23.509 0 42.667-19.157 42.667-42.667v-85.333z" />
<glyph unicode="&#xe953;" glyph-name="axe" d="M768 746.667h-85.333v42.667h-85.333v-42.667h-42.667c-94.891 0-128.896 94.976-130.176 98.816-7.509 22.357-31.573 34.475-53.973 27.008-6.443-2.176-157.184-55.168-157.184-296.491 0-241.365 150.741-294.315 157.184-296.491 22.4-7.424 46.293 4.821 53.931 26.752 1.323 4.096 35.328 99.072 130.219 99.072h42.667v-384h85.333v384h85.333c23.595 0 42.667 19.072 42.667 42.667v256c0 23.552-19.072 42.667-42.667 42.667zM366.763 381.099c-29.013 26.325-68.096 82.688-68.096 194.901 0 112.939 38.912 168.96 67.968 195.115 14.549-23.595 36.736-51.541 68.437-73.387-26.069-27.435-51.072-67.712-51.072-121.728s25.003-94.293 50.987-121.728c-31.531-21.717-53.675-49.621-68.224-73.173zM725.333 490.667h-170.667c-9.728 0-18.645-1.067-27.563-2.133-13.611 8.277-57.771 38.741-57.771 87.467s44.16 79.189 57.771 87.467c8.917-1.067 17.835-2.133 27.563-2.133h170.667v-170.667z" />
<glyph unicode="&#xe954;" glyph-name="screw" d="M883.499 819.541c-48.384 48.213-112.128 74.837-179.499 74.837-67.413 0-131.157-26.624-179.499-74.88-8.021-7.936-12.501-18.816-12.501-30.123 0-11.392 4.48-22.187 12.501-30.208l55.168-55.168-353.835-353.835c-4.096-4.139-7.339-8.96-9.472-14.336l-85.333-213.333c-6.315-15.829-2.603-33.92 9.472-45.952 11.819-11.861 29.824-15.915 45.995-9.472l213.333 85.333c5.376 2.133 10.24 5.333 14.336 9.472l353.835 353.835 55.168-55.168c8.32-8.363 19.243-12.544 30.165-12.544s21.845 4.139 30.165 12.501c48.341 48.256 75.008 112 75.008 179.413 0 67.499-26.667 131.2-75.008 179.627zM426.667 430.379l42.667 42.667v-135.381l-42.667-42.667v135.381zM292.352 296.021l48.981 49.024v-124.16l-94.080-37.675 45.099 112.811zM554.667 422.997v135.381l85.333 85.333 67.669-67.712-153.003-153.003zM849.621 554.752l-230.869 230.827c51.371 30.592 117.632 29.227 169.771-0.725l-50.688-50.688 60.331-60.331 50.944 50.944c15.275-25.728 24.021-54.613 24.021-84.907 0.043-30.208-8.192-59.435-23.509-85.12z" />
<glyph unicode="&#xe955;" glyph-name="shovel" d="M969.984 306.389l-170.667 170.667c-16.683 16.683-43.648 16.683-60.331 0l-97.835-97.835-341.333 341.333v195.669c0 17.237-10.368 32.811-26.325 39.424s-34.304 2.944-46.507-9.259l-213.333-213.333c-12.16-12.245-15.829-30.549-9.259-46.507 6.613-15.957 22.187-26.325 39.424-26.325h195.669l341.333-341.333-97.835-97.835c-16.683-16.683-16.683-43.648 0-60.373l170.667-170.581c84.267-84.565 257.92-58.539 316.331-0.085 59.563 59.563 84.181 232.064 0 316.373zM214.485 745.557h-67.669l67.669 67.669v-67.669zM909.653 50.389c-34.261-34.261-152.789-43.008-195.669 0l-140.501 140.501 67.669 67.669 140.501-140.544 60.331 60.373-140.501 140.501 67.669 67.669 140.501-140.459c49.152-49.28 25.941-169.813 0-195.712z" />
<glyph unicode="&#xe956;" glyph-name="trowel" d="M936.064 78.549l-170.667 469.333c-4.992 13.739-16.597 23.979-30.848 27.136-14.251 3.072-29.099-1.152-39.424-11.52l-119.125-119.168-110.336 110.336 33.835 33.877c16.683 16.64 16.683 43.648 0 60.331l-213.333 213.333c-16.683 16.64-43.648 16.64-60.331 0l-128-128c-16.683-16.683-16.683-43.648 0-60.331l213.333-213.333c8.32-8.363 19.243-12.544 30.165-12.544s21.845 4.139 30.165 12.501l33.792 33.792 110.379-110.336-119.168-119.125c-10.325-10.368-14.677-25.173-11.52-39.424 3.157-14.208 13.355-25.856 27.093-30.891l469.333-170.667c15.232-5.589 32.853-1.963 44.757 9.984 11.733 11.691 15.573 29.184 9.899 44.715zM341.333 550.997l-153.003 153.003 67.669 67.669 153.003-153.003-67.669-67.669zM504.192 251.904l71.808 71.765 76.501-76.459 60.331 60.331-76.501 76.459 71.808 71.723 116.523-320.384-320.469 116.565z" />
<glyph unicode="&#xe957;" glyph-name="traffic-cone" d="M843.093 106.667l-204.672 736.768c-5.077 18.432-21.931 31.232-41.088 31.232h-170.667c-19.157 0-36.011-12.8-41.088-31.232l-204.672-736.768h-95.573v-85.333h853.333v85.333h-95.573zM683.435 362.667h-342.869l35.584 128h271.701l35.584-128zM459.093 789.333h105.813l35.541-128h-176.896l35.541 128zM269.44 106.667l23.723 85.333h437.675l23.723-85.333h-485.12z" />
<glyph unicode="&#xe958;" glyph-name="trolley-box" d="M341.333 448h128v-85.333h-128v85.333zM256 234.667h170.667v85.333h-128v256h256v-128h85.333v384c0 23.552-19.072 42.667-42.667 42.667h-256c-23.595 0-42.667-19.115-42.667-42.667v-170.667h-42.667c-23.595 0-42.667-19.115-42.667-42.667v-341.333c0-23.595 19.072-42.667 42.667-42.667zM384 789.333h170.667v-128h-170.667v128zM853.333 789.333v85.333h-128c-23.595 0-42.667-19.115-42.667-42.667v-469.333c-94.080 0-170.667-76.544-170.667-170.667h-298.667c-11.349 0-22.187-4.48-30.165-12.501l-85.333-85.333 60.331-60.331 72.832 72.832h304.768c29.568-50.773 84.053-85.333 146.901-85.333 94.080 0 170.667 76.544 170.667 170.667 0 62.891-34.603 117.333-85.333 146.901v450.432h85.333zM682.667 106.667c-47.104 0-85.333 38.272-85.333 85.333s38.229 85.333 85.333 85.333 85.333-38.272 85.333-85.333c0-47.104-38.229-85.333-85.333-85.333z" />
<glyph unicode="&#xe959;" glyph-name="truck-cement-mixer" d="M871.68 448.768l120.704 241.365c8.192 16.427 4.992 36.309-8.021 49.237l-181.035 180.992c-12.971 12.971-32.811 16.213-49.237 8.021l-241.323-120.661c-4.096-2.048-7.851-4.779-11.093-8.021-48.384-48.384-75.008-112.597-75.008-181.035 0-68.395 26.667-132.693 74.965-181.035 48.384-48.299 112.64-74.965 181.035-74.965s132.651 26.667 181.035 74.965c3.2 3.285 5.888 7.040 7.979 11.136zM764.757 838.272l137.557-137.515-80.469-160.939-217.984 217.984 160.896 80.469zM562.005 498.005c-32.256 32.213-50.005 75.093-50.005 120.661 0 30.933 8.533 60.501 23.893 86.443l233.003-233.003c-64.853-36.864-152.789-28.245-206.891 25.899zM384 533.333c0 23.595-19.115 42.667-42.667 42.667h-128c-94.123 0-170.667-76.587-170.667-170.667v-256c0-23.595 19.115-42.667 42.667-42.667h93.227c17.664-49.579 64.555-85.333 120.107-85.333s102.443 35.755 120.107 85.333h143.744c17.664-49.579 64.597-85.333 120.107-85.333s102.443 35.755 120.107 85.333h50.603c23.552 0 42.667 19.072 42.667 42.667v170.667c0 23.595-19.115 42.667-42.667 42.667h-469.333v170.667zM128 405.333c0 47.104 38.272 85.333 85.333 85.333h85.333v-213.333c-55.552 0-102.443-35.755-120.107-85.333h-50.56v213.333zM298.667 106.667c-23.509 0-42.667 19.157-42.667 42.667s19.157 42.667 42.667 42.667 42.667-19.157 42.667-42.667-19.157-42.667-42.667-42.667zM682.667 106.667c-23.509 0-42.667 19.157-42.667 42.667s19.157 42.667 42.667 42.667 42.667-19.157 42.667-42.667-19.157-42.667-42.667-42.667zM810.667 277.333v-85.333h-7.893c-17.664 49.579-64.597 85.333-120.107 85.333s-102.443-35.755-120.107-85.333h-143.787c-7.168 20.224-19.157 37.973-34.773 52.011v33.323h426.667zM170.667 448h85.333v-85.333h-85.333v85.333z" />
<glyph unicode="&#xe95a;" glyph-name="vote-flag" d="M883.499 606.123l-256 256c-16.683 16.683-43.648 16.683-60.331 0l-140.501-140.501-55.168 55.168c-16.683 16.683-43.648 16.683-60.331 0l-213.333-213.333c-16.683-16.683-16.683-43.648 0-60.331l469.333-469.333 60.331 60.331-183.168 183.168 67.669 67.627 55.168-55.168c8.32-8.32 19.243-12.501 30.165-12.501s21.845 4.181 30.165 12.501l256 256c16.683 16.683 16.683 43.691 0 60.373zM188.331 533.291l153.003 152.96 195.669-195.669-153.003-152.96-195.669 195.669zM640 422.955v67.669c0 10.923-4.181 21.845-12.501 30.165l-140.501 140.501 110.336 110.293 195.669-195.669-153.003-152.96z" />
<glyph unicode="&#xe95b;" glyph-name="wallet" d="M896 533.333h-42.667v85.333c0 47.061-38.272 85.333-85.333 85.333h-16.299l-73.557 147.072c-9.899 19.84-33.408 28.757-54.016 20.523l-419.029-167.595h-34.432c-47.061 0-85.333-38.272-85.333-85.333v-512c0-47.061 38.272-85.333 85.333-85.333h597.333c47.061 0 85.333 38.272 85.333 85.333v85.333h42.667c23.552 0 42.667 19.115 42.667 42.667v256c0 23.552-19.115 42.667-42.667 42.667zM619.392 777.813l36.907-73.813h-221.397l184.491 73.813zM767.872 106.667h-597.205v512h597.333v-85.333h-128c-11.307 0-22.187-4.523-30.165-12.544l-128-128c-16.683-16.64-16.683-43.605 0-60.331l128-128c7.979-7.936 18.859-12.459 30.165-12.459h127.915l-0.043-85.333zM853.333 277.333h-195.669l-85.333 85.333 85.333 85.333h195.669v-170.667zM725.333 362.667c0-23.564-19.103-42.667-42.667-42.667s-42.667 19.103-42.667 42.667c0 23.564 19.103 42.667 42.667 42.667s42.667-19.103 42.667-42.667z" />
<glyph unicode="&#xe95c;" glyph-name="warehouse-box" d="M992.597 745.131l-469.333 128c-7.424 2.005-15.104 2.005-22.485 0l-469.333-128c-18.56-5.035-31.445-21.888-31.445-41.131v-85.333c0-23.552 19.072-42.667 42.667-42.667v-554.667h85.333v554.667h768v-554.667h85.333v554.667c23.595 0 42.667 19.115 42.667 42.667v85.333c0 19.243-12.885 36.096-31.403 41.131zM85.333 671.403l426.667 116.352 426.667-116.352v-10.069h-853.333v10.069zM768 320h-85.333v170.667c0 23.552-19.072 42.667-42.667 42.667h-256c-23.595 0-42.667-19.115-42.667-42.667v-170.667h-85.333c-23.595 0-42.667-19.115-42.667-42.667v-213.333c0-23.552 19.072-42.667 42.667-42.667h512c23.595 0 42.667 19.115 42.667 42.667v213.333c0 23.552-19.072 42.667-42.667 42.667zM426.667 448h42.667v-85.333h85.333v85.333h42.667v-128h-170.667v128zM298.667 234.667h42.667v-85.333h85.333v85.333h42.667v-128h-170.667v128zM725.333 106.667h-170.667v128h42.667v-85.333h85.333v85.333h42.667v-128z" />
<glyph unicode="&#xe95d;" glyph-name="wrap-text-around" d="M256 661.333h256v-85.333h-256v85.333zM256 490.667h256v-85.333h-256v85.333zM256 320h512v-85.333h-512v85.333zM853.333 874.667h-682.667c-47.061 0-85.333-38.272-85.333-85.333v-682.667c0-47.061 38.272-85.333 85.333-85.333h682.667c47.061 0 85.333 38.272 85.333 85.333v682.667c0 47.061-38.272 85.333-85.333 85.333zM853.205 106.667h-682.539v682.667h682.667l-0.128-682.667zM597.333 661.333h170.667v-256h-170.667v256z" />
<glyph unicode="&#xe95e;" glyph-name="wrench-screwdriver" d="M768 362.667c-31.573 0-60.843-9.173-86.229-24.149l-79.275 79.36-60.331-60.373 79.317-79.275c-14.976-25.429-24.149-54.613-24.149-86.229 0-94.165 76.416-170.667 170.667-170.667 31.573 0 60.8 9.131 86.187 24.149l-116.352 116.352 60.331 60.331 116.352-116.309c14.976 25.387 24.149 54.613 24.149 86.144 0 94.293-76.416 170.667-170.667 170.667zM256 533.333c31.573 0 60.8 9.131 86.187 24.149l79.317-79.317 60.331 60.331-79.317 79.317c14.976 25.429 24.149 54.613 24.149 86.187 0 94.293-76.416 170.667-170.667 170.667-31.573 0-60.843-9.131-86.229-24.149l116.395-116.352-60.331-60.288-116.352 116.352c-14.976-25.429-24.149-54.613-24.149-86.229 0-94.123 76.416-170.667 170.667-170.667zM444.331 320l332.501 332.501 33.835-33.835 128 170.667-85.333 85.333-170.667-128 33.835-33.835-332.501-332.501-97.835 97.835-60.331-60.331 55.168-55.168-183.168-183.168c-16.683-16.683-16.683-43.648 0-60.331l85.333-85.333c16.683-16.683 43.648-16.683 60.331 0l183.168 183.211 55.168-55.168 60.331 60.331-97.835 97.792z" />
<glyph unicode="&#xe95f;" glyph-name="wrench" d="M810.667 576c0 126.123-80 239.189-199.083 281.301l-56.917 20.181v-258.816c0-23.595-19.157-42.667-42.667-42.667s-42.667 19.072-42.667 42.667v258.816l-56.917-20.181c-119.083-42.112-199.083-155.179-199.083-281.301 0-118.869 69.931-221.355 170.667-269.44v-285.227h85.333v256h85.333v-256h85.333v285.227c100.736 48.085 170.667 150.613 170.667 269.44zM512 362.667c-117.632 0-213.333 95.701-213.333 213.333 0 68.053 32.683 130.773 85.333 170.368v-127.701c0-70.571 57.429-128 128-128s128 57.429 128 128v127.744c52.651-39.595 85.333-102.315 85.333-170.411 0-117.589-95.701-213.333-213.333-213.333z" />
<glyph unicode="&#xf002;" glyph-name="search" horiz-adv-x="951" d="M658.286 475.428c0 141.143-114.857 256-256 256s-256-114.857-256-256 114.857-256 256-256 256 114.857 256 256zM950.857 0c0-40-33.143-73.143-73.143-73.143-19.429 0-38.286 8-51.429 21.714l-196 195.429c-66.857-46.286-146.857-70.857-228-70.857-222.286 0-402.286 180-402.286 402.286s180 402.286 402.286 402.286 402.286-180 402.286-402.286c0-81.143-24.571-161.143-70.857-228l196-196c13.143-13.143 21.143-32 21.143-51.429z" />
<glyph unicode="&#xf003;" glyph-name="envelope-o" d="M950.857 91.428v438.857c-12-13.714-25.143-26.286-39.429-37.714-81.714-62.857-164-126.857-243.429-193.143-42.857-36-96-80-155.429-80h-1.143c-59.429 0-112.571 44-155.429 80-79.429 66.286-161.714 130.286-243.429 193.143-14.286 11.429-27.429 24-39.429 37.714v-438.857c0-9.714 8.571-18.286 18.286-18.286h841.143c9.714 0 18.286 8.571 18.286 18.286zM950.857 692c0 14.286 3.429 39.429-18.286 39.429h-841.143c-9.714 0-18.286-8.571-18.286-18.286 0-65.143 32.571-121.714 84-162.286 76.571-60 153.143-120.571 229.143-181.143 30.286-24.571 85.143-77.143 125.143-77.143h1.143c40 0 94.857 52.571 125.143 77.143 76 60.571 152.571 121.143 229.143 181.143 37.143 29.143 84 92.571 84 141.143zM1024 713.143v-621.714c0-50.286-41.143-91.429-91.429-91.429h-841.143c-50.286 0-91.429 41.143-91.429 91.429v621.714c0 50.286 41.143 91.429 91.429 91.429h841.143c50.286 0 91.429-41.143 91.429-91.429z" />
<glyph unicode="&#xf007;" glyph-name="user" horiz-adv-x="731" d="M731.429 151.428c0-83.429-54.857-151.429-121.714-151.429h-488c-66.857 0-121.714 68-121.714 151.429 0 150.286 37.143 324 186.857 324 46.286-45.143 109.143-73.143 178.857-73.143s132.571 28 178.857 73.143c149.714 0 186.857-173.714 186.857-324zM585.143 658.286c0-121.143-98.286-219.429-219.429-219.429s-219.429 98.286-219.429 219.429 98.286 219.429 219.429 219.429 219.429-98.286 219.429-219.429z" />
<glyph unicode="&#xf00c;" glyph-name="check" d="M954.857 627.428c0-14.286-5.714-28.571-16-38.857l-491.429-491.429c-10.286-10.286-24.571-16-38.857-16s-28.571 5.714-38.857 16l-284.571 284.571c-10.286 10.286-16 24.571-16 38.857s5.714 28.571 16 38.857l77.714 77.714c10.286 10.286 24.571 16 38.857 16s28.571-5.714 38.857-16l168-168.571 374.857 375.429c10.286 10.286 24.571 16 38.857 16s28.571-5.714 38.857-16l77.714-77.714c10.286-10.286 16-24.571 16-38.857z" />
<glyph unicode="&#xf00d;" glyph-name="close" horiz-adv-x="805" d="M741.714 195.428c0-14.286-5.714-28.571-16-38.857l-77.714-77.714c-10.286-10.286-24.571-16-38.857-16s-28.571 5.714-38.857 16l-168 168-168-168c-10.286-10.286-24.571-16-38.857-16s-28.571 5.714-38.857 16l-77.714 77.714c-10.286 10.286-16 24.571-16 38.857s5.714 28.571 16 38.857l168 168-168 168c-10.286 10.286-16 24.571-16 38.857s5.714 28.571 16 38.857l77.714 77.714c10.286 10.286 24.571 16 38.857 16s28.571-5.714 38.857-16l168-168 168 168c10.286 10.286 24.571 16 38.857 16s28.571-5.714 38.857-16l77.714-77.714c10.286-10.286 16-24.571 16-38.857s-5.714-28.571-16-38.857l-168-168 168-168c10.286-10.286 16-24.571 16-38.857z" />
<glyph unicode="&#xf016;" glyph-name="file-o" horiz-adv-x="878" d="M838.857 733.714c21.143-21.143 38.857-63.429 38.857-93.714v-658.286c0-30.286-24.571-54.857-54.857-54.857h-768c-30.286 0-54.857 24.571-54.857 54.857v914.286c0 30.286 24.571 54.857 54.857 54.857h512c30.286 0 72.571-17.714 93.714-38.857zM585.143 873.143v-214.857h214.857c-3.429 9.714-8.571 19.429-12.571 23.429l-178.857 178.857c-4 4-13.714 9.143-23.429 12.571zM804.571 0v585.143h-237.714c-30.286 0-54.857 24.571-54.857 54.857v237.714h-438.857v-877.714h731.429z" />
<glyph unicode="&#xf041;" glyph-name="map-marker" horiz-adv-x="585" d="M438.857 585.143c0 80.571-65.714 146.286-146.286 146.286s-146.286-65.714-146.286-146.286 65.714-146.286 146.286-146.286 146.286 65.714 146.286 146.286zM585.143 585.143c0-34.857-4-70.857-18.857-102.286l-208-442.286c-12-25.143-38.286-40.571-65.714-40.571s-53.714 15.429-65.143 40.571l-208.571 442.286c-14.857 31.429-18.857 67.429-18.857 102.286 0 161.714 130.857 292.571 292.571 292.571s292.571-130.857 292.571-292.571z" />
<glyph unicode="&#xf053;" glyph-name="chevron-left" horiz-adv-x="768" d="M669.143 778.857l-303.429-303.429 303.429-303.429c14.286-14.286 14.286-37.143 0-51.429l-94.857-94.857c-14.286-14.286-37.143-14.286-51.429 0l-424 424c-14.286 14.286-14.286 37.143 0 51.429l424 424c14.286 14.286 37.143 14.286 51.429 0l94.857-94.857c14.286-14.286 14.286-37.143 0-51.429z" />
<glyph unicode="&#xf054;" glyph-name="chevron-right" horiz-adv-x="695" d="M632.571 449.714l-424-424c-14.286-14.286-37.143-14.286-51.429 0l-94.857 94.857c-14.286 14.286-14.286 37.143 0 51.429l303.429 303.429-303.429 303.429c-14.286 14.286-14.286 37.143 0 51.429l94.857 94.857c14.286 14.286 37.143 14.286 51.429 0l424-424c14.286-14.286 14.286-37.143 0-51.429z" />
<glyph unicode="&#xf058;" glyph-name="check-circle" horiz-adv-x="878" d="M733.714 531.428c0 9.714-3.429 19.429-10.286 26.286l-52 51.429c-6.857 6.857-16 10.857-25.714 10.857s-18.857-4-25.714-10.857l-233.143-232.571-129.143 129.143c-6.857 6.857-16 10.857-25.714 10.857s-18.857-4-25.714-10.857l-52-51.429c-6.857-6.857-10.286-16.571-10.286-26.286s3.429-18.857 10.286-25.714l206.857-206.857c6.857-6.857 16.571-10.857 25.714-10.857 9.714 0 19.429 4 26.286 10.857l310.286 310.286c6.857 6.857 10.286 16 10.286 25.714zM877.714 438.857c0-242.286-196.571-438.857-438.857-438.857s-438.857 196.571-438.857 438.857 196.571 438.857 438.857 438.857 438.857-196.571 438.857-438.857z" />
<glyph unicode="&#xf05a;" glyph-name="info-circle" horiz-adv-x="878" d="M585.143 164.571v91.429c0 10.286-8 18.286-18.286 18.286h-54.857v292.571c0 10.286-8 18.286-18.286 18.286h-182.857c-10.286 0-18.286-8-18.286-18.286v-91.429c0-10.286 8-18.286 18.286-18.286h54.857v-182.857h-54.857c-10.286 0-18.286-8-18.286-18.286v-91.429c0-10.286 8-18.286 18.286-18.286h256c10.286 0 18.286 8 18.286 18.286zM512 676.571v91.429c0 10.286-8 18.286-18.286 18.286h-109.714c-10.286 0-18.286-8-18.286-18.286v-91.429c0-10.286 8-18.286 18.286-18.286h109.714c10.286 0 18.286 8 18.286 18.286zM877.714 438.857c0-242.286-196.571-438.857-438.857-438.857s-438.857 196.571-438.857 438.857 196.571 438.857 438.857 438.857 438.857-196.571 438.857-438.857z" />
<glyph unicode="&#xf067;" glyph-name="plus" horiz-adv-x="805" d="M804.571 530.286v-109.714c0-30.286-24.571-54.857-54.857-54.857h-237.714v-237.714c0-30.286-24.571-54.857-54.857-54.857h-109.714c-30.286 0-54.857 24.571-54.857 54.857v237.714h-237.714c-30.286 0-54.857 24.571-54.857 54.857v109.714c0 30.286 24.571 54.857 54.857 54.857h237.714v237.714c0 30.286 24.571 54.857 54.857 54.857h109.714c30.286 0 54.857-24.571 54.857-54.857v-237.714h237.714c30.286 0 54.857-24.571 54.857-54.857z" />
<glyph unicode="&#xf06a;" glyph-name="exclamation-circle" horiz-adv-x="878" d="M438.857 877.714c242.286 0 438.857-196.571 438.857-438.857s-196.571-438.857-438.857-438.857-438.857 196.571-438.857 438.857 196.571 438.857 438.857 438.857zM512 165.143v108.571c0 10.286-8 18.857-17.714 18.857h-109.714c-10.286 0-18.857-8.571-18.857-18.857v-108.571c0-10.286 8.571-18.857 18.857-18.857h109.714c9.714 0 17.714 8.571 17.714 18.857zM510.857 361.714l10.286 354.857c0 4-1.714 8-5.714 10.286-3.429 2.857-8.571 4.571-13.714 4.571h-125.714c-5.143 0-10.286-1.714-13.714-4.571-4-2.286-5.714-6.286-5.714-10.286l9.714-354.857c0-8 8.571-14.286 19.429-14.286h105.714c10.286 0 18.857 6.286 19.429 14.286z" />
<glyph unicode="&#xf077;" glyph-name="chevron-up" d="M961.714 190.286l-94.857-94.286c-14.286-14.286-37.143-14.286-51.429 0l-303.429 303.429-303.429-303.429c-14.286-14.286-37.143-14.286-51.429 0l-94.857 94.286c-14.286 14.286-14.286 37.714 0 52l424 423.429c14.286 14.286 37.143 14.286 51.429 0l424-423.429c14.286-14.286 14.286-37.714 0-52z" />
<glyph unicode="&#xf078;" glyph-name="chevron-down" d="M961.714 489.143l-424-423.429c-14.286-14.286-37.143-14.286-51.429 0l-424 423.429c-14.286 14.286-14.286 37.714 0 52l94.857 94.286c14.286 14.286 37.143 14.286 51.429 0l303.429-303.429 303.429 303.429c14.286 14.286 37.143 14.286 51.429 0l94.857-94.286c14.286-14.286 14.286-37.714 0-52z" />
<glyph unicode="&#xf07b;" glyph-name="folder" horiz-adv-x="951" d="M950.857 603.428v-402.286c0-70.286-57.714-128-128-128h-694.857c-70.286 0-128 57.714-128 128v548.571c0 70.286 57.714 128 128 128h182.857c70.286 0 128-57.714 128-128v-18.286h384c70.286 0 128-57.714 128-128z" />
<glyph unicode="&#xf07c;" glyph-name="folder-open" horiz-adv-x="1074" d="M1073.714 406.857c0-13.714-8.571-27.429-17.714-37.714l-192-226.286c-33.143-38.857-100.571-69.714-150.857-69.714h-621.714c-20.571 0-49.714 6.286-49.714 32 0 13.714 8.571 27.429 17.714 37.714l192 226.286c33.143 38.857 100.571 69.714 150.857 69.714h621.714c20.571 0 49.714-6.286 49.714-32zM877.714 603.428v-91.429h-475.429c-71.429 0-160-40.571-206.286-95.429l-195.429-229.714c0 4.571-0.571 9.714-0.571 14.286v548.571c0 70.286 57.714 128 128 128h182.857c70.286 0 128-57.714 128-128v-18.286h310.857c70.286 0 128-57.714 128-128z" />
<glyph unicode="&#xf08d;" glyph-name="thumb-tack" horiz-adv-x="658" d="M274.286 457.143v256c0 10.286-8 18.286-18.286 18.286s-18.286-8-18.286-18.286v-256c0-10.286 8-18.286 18.286-18.286s18.286 8 18.286 18.286zM658.286 256c0-20-16.571-36.571-36.571-36.571h-245.143l-29.143-276c-1.143-9.143-8.571-16.571-17.714-16.571h-0.571c-9.143 0-16.571 6.286-18.286 15.429l-43.429 277.143h-230.857c-20 0-36.571 16.571-36.571 36.571 0 93.714 70.857 182.857 146.286 182.857v292.571c-40 0-73.143 33.143-73.143 73.143s33.143 73.143 73.143 73.143h365.714c40 0 73.143-33.143 73.143-73.143s-33.143-73.143-73.143-73.143v-292.571c75.429 0 146.286-89.143 146.286-182.857z" />
<glyph unicode="&#xf095;" glyph-name="phone" horiz-adv-x="805" d="M804.571 242.286c0-20.571-9.143-60.571-17.714-79.429-12-28-44-46.286-69.714-60.571-33.714-18.286-68-29.143-106.286-29.143-53.143 0-101.143 21.714-149.714 39.429-34.857 12.571-68.571 28-100 47.429-97.143 60-214.286 177.143-274.286 274.286-19.429 31.429-34.857 65.143-47.429 100-17.714 48.571-39.429 96.571-39.429 149.714 0 38.286 10.857 72.571 29.143 106.286 14.286 25.714 32.571 57.714 60.571 69.714 18.857 8.571 58.857 17.714 79.429 17.714 4 0 8 0 12-1.714 12-4 24.571-32 30.286-43.429 18.286-32.571 36-65.714 54.857-97.714 9.143-14.857 26.286-33.143 26.286-50.857 0-34.857-103.429-85.714-103.429-116.571 0-15.429 14.286-35.429 22.286-49.143 57.714-104 129.714-176 233.714-233.714 13.714-8 33.714-22.286 49.143-22.286 30.857 0 81.714 103.429 116.571 103.429 17.714 0 36-17.143 50.857-26.286 32-18.857 65.143-36.571 97.714-54.857 11.429-5.714 39.429-18.286 43.429-30.286 1.714-4 1.714-8 1.714-12z" />
<glyph unicode="&#xf099;" glyph-name="twitter" horiz-adv-x="951" d="M925.714 717.714c-25.143-36.571-56.571-69.143-92.571-95.429 0.571-8 0.571-16 0.571-24 0-244-185.714-525.143-525.143-525.143-104.571 0-201.714 30.286-283.429 82.857 14.857-1.714 29.143-2.286 44.571-2.286 86.286 0 165.714 29.143 229.143 78.857-81.143 1.714-149.143 54.857-172.571 128 11.429-1.714 22.857-2.857 34.857-2.857 16.571 0 33.143 2.286 48.571 6.286-84.571 17.143-148 91.429-148 181.143v2.286c24.571-13.714 53.143-22.286 83.429-23.429-49.714 33.143-82.286 89.714-82.286 153.714 0 34.286 9.143 65.714 25.143 93.143 90.857-112 227.429-185.143 380.571-193.143-2.857 13.714-4.571 28-4.571 42.286 0 101.714 82.286 184.571 184.571 184.571 53.143 0 101.143-22.286 134.857-58.286 41.714 8 81.714 23.429 117.143 44.571-13.714-42.857-42.857-78.857-81.143-101.714 37.143 4 73.143 14.286 106.286 28.571z" />
<glyph unicode="&#xf09a;" glyph-name="facebook" horiz-adv-x="602" d="M548 944v-150.857h-89.714c-70.286 0-83.429-33.714-83.429-82.286v-108h167.429l-22.286-169.143h-145.143v-433.714h-174.857v433.714h-145.714v169.143h145.714v124.571c0 144.571 88.571 223.429 217.714 223.429 61.714 0 114.857-4.571 130.286-6.857z" />
<glyph unicode="&#xf09b;" glyph-name="github" horiz-adv-x="878" d="M438.857 877.714c242.286 0 438.857-196.571 438.857-438.857 0-193.714-125.714-358.286-300-416.571-22.286-4-30.286 9.714-30.286 21.143 0 14.286 0.571 61.714 0.571 120.571 0 41.143-13.714 67.429-29.714 81.143 97.714 10.857 200.571 48 200.571 216.571 0 48-17.143 86.857-45.143 117.714 4.571 11.429 19.429 56-4.571 116.571-36.571 11.429-120.571-45.143-120.571-45.143-34.857 9.714-72.571 14.857-109.714 14.857s-74.857-5.143-109.714-14.857c0 0-84 56.571-120.571 45.143-24-60.571-9.143-105.143-4.571-116.571-28-30.857-45.143-69.714-45.143-117.714 0-168 102.286-205.714 200-216.571-12.571-11.429-24-30.857-28-58.857-25.143-11.429-89.143-30.857-127.429 36.571-24 41.714-67.429 45.143-67.429 45.143-42.857 0.571-2.857-26.857-2.857-26.857 28.571-13.143 48.571-64 48.571-64 25.714-78.286 148-52 148-52 0-36.571 0.571-70.857 0.571-81.714 0-11.429-8-25.143-30.286-21.143-174.286 58.286-300 222.857-300 416.571 0 242.286 196.571 438.857 438.857 438.857zM166.286 247.428c1.143 2.286-0.571 5.143-4 6.857-3.429 1.143-6.286 0.571-7.429-1.143-1.143-2.286 0.571-5.143 4-6.857 2.857-1.714 6.286-1.143 7.429 1.143zM184 228c2.286 1.714 1.714 5.714-1.143 9.143-2.857 2.857-6.857 4-9.143 1.714-2.286-1.714-1.714-5.714 1.143-9.143 2.857-2.857 6.857-4 9.143-1.714zM201.143 202.286c2.857 2.286 2.857 6.857 0 10.857-2.286 4-6.857 5.714-9.714 3.429-2.857-1.714-2.857-6.286 0-10.286s7.429-5.714 9.714-4zM225.143 178.286c2.286 2.286 1.143 7.429-2.286 10.857-4 4-9.143 4.571-11.429 1.714-2.857-2.286-1.714-7.429 2.286-10.857 4-4 9.143-4.571 11.429-1.714zM257.714 164c1.143 3.429-2.286 7.429-7.429 9.143-4.571 1.143-9.714-0.571-10.857-4s2.286-7.429 7.429-8.571c4.571-1.714 9.714 0 10.857 3.429zM293.714 161.143c0 4-4.571 6.857-9.714 6.286-5.143 0-9.143-2.857-9.143-6.286 0-4 4-6.857 9.714-6.286 5.143 0 9.143 2.857 9.143 6.286zM326.857 166.857c-0.571 3.429-5.143 5.714-10.286 5.143-5.143-1.143-8.571-4.571-8-8.571 0.571-3.429 5.143-5.714 10.286-4.571s8.571 4.571 8 8z" />
<glyph unicode="&#xf0c0;" glyph-name="users" horiz-adv-x="1097" d="M338.857 438.857c-59.429-1.714-113.143-27.429-151.429-73.143h-76.571c-57.143 0-110.857 27.429-110.857 90.857 0 46.286-1.714 201.714 70.857 201.714 12 0 71.429-48.571 148.571-48.571 26.286 0 51.429 4.571 76 13.143-1.714-12.571-2.857-25.143-2.857-37.714 0-52 16.571-103.429 46.286-146.286zM950.857 74.857c0-92.571-61.143-148-152.571-148h-499.429c-91.429 0-152.571 55.429-152.571 148 0 129.143 30.286 327.429 197.714 327.429 19.429 0 90.286-79.429 204.571-79.429s185.143 79.429 204.571 79.429c167.429 0 197.714-198.286 197.714-327.429zM365.714 804.571c0-80.571-65.714-146.286-146.286-146.286s-146.286 65.714-146.286 146.286 65.714 146.286 146.286 146.286 146.286-65.714 146.286-146.286zM768 585.143c0-121.143-98.286-219.429-219.429-219.429s-219.429 98.286-219.429 219.429 98.286 219.429 219.429 219.429 219.429-98.286 219.429-219.429zM1097.143 456.571c0-63.429-53.714-90.857-110.857-90.857h-76.571c-38.286 45.714-92 71.429-151.429 73.143 29.714 42.857 46.286 94.286 46.286 146.286 0 12.571-1.143 25.143-2.857 37.714 24.571-8.571 49.714-13.143 76-13.143 77.143 0 136.571 48.571 148.571 48.571 72.571 0 70.857-155.429 70.857-201.714zM1024 804.571c0-80.571-65.714-146.286-146.286-146.286s-146.286 65.714-146.286 146.286 65.714 146.286 146.286 146.286 146.286-65.714 146.286-146.286z" />
<glyph unicode="&#xf0c1;" glyph-name="link" horiz-adv-x="951" d="M832 256c0 14.857-5.714 28.571-16 38.857l-118.857 118.857c-10.286 10.286-24.571 16-38.857 16-16.571 0-29.714-6.286-41.143-18.286 18.857-18.857 41.143-34.857 41.143-64 0-30.286-24.571-54.857-54.857-54.857-29.143 0-45.143 22.286-64 41.143-12-11.429-18.857-24.571-18.857-41.714 0-14.286 5.714-28.571 16-38.857l117.714-118.286c10.286-10.286 24.571-15.429 38.857-15.429s28.571 5.143 38.857 14.857l84 83.429c10.286 10.286 16 24 16 38.286zM430.286 658.857c0 14.286-5.714 28.571-16 38.857l-117.714 118.286c-10.286 10.286-24.571 16-38.857 16s-28.571-5.714-38.857-15.429l-84-83.429c-10.286-10.286-16-24-16-38.286 0-14.857 5.714-28.571 16-38.857l118.857-118.857c10.286-10.286 24.571-15.429 38.857-15.429 16.571 0 29.714 5.714 41.143 17.714-18.857 18.857-41.143 34.857-41.143 64 0 30.286 24.571 54.857 54.857 54.857 29.143 0 45.143-22.286 64-41.143 12 11.429 18.857 24.571 18.857 41.714zM941.714 256c0-43.429-17.714-85.714-48.571-116l-84-83.429c-30.857-30.857-72.571-47.429-116-47.429-44 0-85.714 17.143-116.571 48.571l-117.714 118.286c-30.857 30.857-47.429 72.571-47.429 116 0 45.143 18.286 88 50.286 119.429l-50.286 50.286c-31.429-32-73.714-50.286-118.857-50.286-43.429 0-85.714 17.143-116.571 48l-118.857 118.857c-31.429 31.429-48 72.571-48 116.571 0 43.429 17.714 85.714 48.571 116l84 83.429c30.857 30.857 72.571 47.429 116 47.429 44 0 85.714-17.143 116.571-48.571l117.714-118.286c30.857-30.857 47.429-72.571 47.429-116 0-45.143-18.286-88-50.286-119.429l50.286-50.286c31.429 32 73.714 50.286 118.857 50.286 43.429 0 85.714-17.143 116.571-48l118.857-118.857c31.429-31.429 48-72.571 48-116.571z" />
<glyph unicode="&#xf0c9;" glyph-name="bars" horiz-adv-x="878" d="M877.714 182.857v-73.143c0-20-16.571-36.571-36.571-36.571h-804.571c-20 0-36.571 16.571-36.571 36.571v73.143c0 20 16.571 36.571 36.571 36.571h804.571c20 0 36.571-16.571 36.571-36.571zM877.714 475.428v-73.143c0-20-16.571-36.571-36.571-36.571h-804.571c-20 0-36.571 16.571-36.571 36.571v73.143c0 20 16.571 36.571 36.571 36.571h804.571c20 0 36.571-16.571 36.571-36.571zM877.714 768v-73.143c0-20-16.571-36.571-36.571-36.571h-804.571c-20 0-36.571 16.571-36.571 36.571v73.143c0 20 16.571 36.571 36.571 36.571h804.571c20 0 36.571-16.571 36.571-36.571z" />
<glyph unicode="&#xf0d2;" glyph-name="pinterest" horiz-adv-x="878" d="M877.714 438.857c0-242.286-196.571-438.857-438.857-438.857-43.429 0-84.571 6.286-124.571 18.286 16.571 26.286 35.429 60 44.571 93.714 0 0 5.143 19.429 30.857 120.571 14.857-29.143 59.429-54.857 106.857-54.857 141.143 0 237.143 128.571 237.143 301.143 0 129.714-110.286 251.429-278.286 251.429-208 0-313.143-149.714-313.143-274.286 0-75.429 28.571-142.857 89.714-168 9.714-4 18.857 0 21.714 11.429 2.286 7.429 6.857 26.857 9.143 34.857 2.857 11.429 1.714 14.857-6.286 24.571-17.714 21.143-29.143 48-29.143 86.286 0 110.857 82.857 210.286 216 210.286 117.714 0 182.857-72 182.857-168.571 0-126.286-56-233.143-139.429-233.143-45.714 0-80 37.714-69.143 84.571 13.143 55.429 38.857 115.429 38.857 155.429 0 36-19.429 66.286-59.429 66.286-46.857 0-84.571-48.571-84.571-113.714 0 0 0-41.714 14.286-69.714-48-203.429-56.571-238.857-56.571-238.857-8-33.143-8.571-70.286-7.429-101.143-154.857 68-262.857 222.286-262.857 402.286 0 242.286 196.571 438.857 438.857 438.857s438.857-196.571 438.857-438.857z" />
<glyph unicode="&#xf0d5;" glyph-name="google-plus" horiz-adv-x="1317" d="M821.143 429.143c0-239.429-160.571-409.143-402.286-409.143-231.429 0-418.857 187.429-418.857 418.857s187.429 418.857 418.857 418.857c113.143 0 207.429-41.143 280.571-109.714l-113.714-109.143c-30.857 29.714-85.143 64.571-166.857 64.571-142.857 0-259.429-118.286-259.429-264.571s116.571-264.571 259.429-264.571c165.714 0 228 119.429 237.714 180.571h-237.714v144h395.429c4-21.143 6.857-42.286 6.857-69.714zM1316.571 498.857v-120h-119.429v-119.429h-120v119.429h-119.429v120h119.429v119.429h120v-119.429h119.429z" />
<glyph unicode="&#xf0e0;" glyph-name="envelope" d="M1024 545.143v-453.714c0-50.286-41.143-91.429-91.429-91.429h-841.143c-50.286 0-91.429 41.143-91.429 91.429v453.714c17.143-18.857 36.571-35.429 57.714-49.714 94.857-64.571 190.857-129.143 284-197.143 48-35.429 107.429-78.857 169.714-78.857h1.143c62.286 0 121.714 43.429 169.714 78.857 93.143 67.429 189.143 132.571 284.571 197.143 20.571 14.286 40 30.857 57.143 49.714zM1024 713.143c0-64-47.429-121.714-97.714-156.571-89.143-61.714-178.857-123.429-267.429-185.714-37.143-25.714-100-78.286-146.286-78.286h-1.143c-46.286 0-109.143 52.571-146.286 78.286-88.571 62.286-178.286 124-266.857 185.714-40.571 27.429-98.286 92-98.286 144 0 56 30.286 104 91.429 104h841.143c49.714 0 91.429-41.143 91.429-91.429z" />
<glyph unicode="&#xf0e1;" glyph-name="linkedin" horiz-adv-x="878" d="M199.429 593.714v-566.286h-188.571v566.286h188.571zM211.429 768.571c0.571-54.286-40.571-97.714-106.286-97.714v0h-1.143c-63.429 0-104 43.429-104 97.714 0 55.429 42.286 97.714 106.286 97.714 64.571 0 104.571-42.286 105.143-97.714zM877.714 352v-324.571h-188v302.857c0 76-27.429 128-95.429 128-52 0-82.857-34.857-96.571-68.571-4.571-12.571-6.286-29.143-6.286-46.286v-316h-188c2.286 513.143 0 566.286 0 566.286h188v-82.286h-1.143c24.571 38.857 69.143 95.429 170.857 95.429 124 0 216.571-81.143 216.571-254.857z" />
</font>
</defs>
</svg>
